<svg xmlns="http://www.w3.org/2000/svg" viewBox="0 0 196.13 224.62"><defs><style>.cls-1{fill:#fff;}.cls-2{fill:#c63317;}</style></defs><title>colored-white</title><g id="Layer_2" data-name="Layer 2"><g id="Objects"><path class="cls-1" d="M102.68,0S87.24,7.48,93.92,22.56a39,39,0,0,1,.54,30c3-2.67,4.84-7,5.84-10.72A36.62,36.62,0,0,0,101,28.27c-.5-4.66-3.17-9.12-3.2-13.74C97.73,9.33,99.92,4.3,102.68,0Z"/><path class="cls-1" d="M118.42,19.78s-10.86,5.32-6.58,16.95c4.2,11.41.4,22.54.4,22.54,2.22-2,3.64-5.23,4.39-8.06A27.5,27.5,0,0,0,117.12,41c-.37-3.5-2.38-6.85-2.4-10.32C114.69,26.79,116.34,23,118.42,19.78Z"/><path class="cls-1" d="M85.62,19.78S73.85,25.47,79,36.73c5.34,11.6.4,22.54.4,22.54a16.83,16.83,0,0,0,4.39-8.06A27.52,27.52,0,0,0,84.32,41c-.37-3.5-2.38-6.85-2.4-10.32C81.89,26.79,83.54,23,85.62,19.78Z"/><path class="cls-1" d="M114.94,133.76c-1.85.17-3.75.31-5.72.42v11.15a1.89,1.89,0,0,1-1.94,1.81,1.92,1.92,0,0,1-2-1.76c-.12-2.34-.12-4.68-.2-7l-.09-4c-1.62.06-3.26.11-5,.13l-.1,7.09s.08,1.59,0,3.69A1.89,1.89,0,0,1,98,147a2,2,0,0,1-2-1.79c0-1.24,0-7,0-10.76-1.41,0-2.79-.06-4.14-.12l-.12,5.83,0,2.68,0,2.45a2,2,0,0,1-3.88-.08c-.09-1.38,0-2.2,0-3.65l-.12-7.42q-2.91-.18-5.64-.43L80.87,159S80,163.13,84.55,167l5.52,5.81a11.57,11.57,0,0,1,3.83,8.64c.08,3.41-.62,25-1.21,42.27,0,.32.1.94.62,1h10.84s.77,0,.73-1.12l-.08-1.6-2-40.08s.28-5.8,4-9.34l6.23-5.95a9.11,9.11,0,0,0,2.27-6.94S115.22,146.83,114.94,133.76Z"/><path class="cls-2" d="M196.13,75.13h-7.5L190,68.86l-7.38,6.27,1.62-12-7.44,10.37a21.19,21.19,0,0,0-13.15-2.9c-5.85.68-11.37,4.14-16.5,6.77-2.8,1.44-5.59,2.7-8.27,3.8,0,0,0,0,0,0l8.71,18.37a3,3,0,0,1-5.42,2.57l-8.71-18.37a2.8,2.8,0,0,1-.16-.46,121.5,121.5,0,0,1-13.05,4l-3.31.55a1.91,1.91,0,0,1,.1.34l3.77,22.47a3,3,0,0,1-2.46,3.45,2.73,2.73,0,0,1-.5,0,3,3,0,0,1-2.95-2.51l-3.78-22.46a3.08,3.08,0,0,1,0-.52,126,126,0,0,1-12.58.93c-3.54-.07-7.08-.32-10.59-.7v20.3a3,3,0,0,1-6,0V88.85a2.84,2.84,0,0,1,.1-.72q-2.65-.39-5.26-.85a124.29,124.29,0,0,1-14.25-4.41l-7.16,20a3,3,0,0,1-2.82,2,2.94,2.94,0,0,1-1-.17,3,3,0,0,1-1.82-3.84L57,80.65c-2.3-1-4.67-2.07-7.05-3.29-5.13-2.63-10.65-6.09-16.5-6.77a20.87,20.87,0,0,0-14.74,4l-8.43-9,3.15,11.7L5.26,72,7.44,78,0,79l7.07,6.89L1.38,88.31s6.13,1.52,11.91,2.89c.08.78.18,1.56.31,2.32,1,5.76,6.24,13.12,18.88,19.68S60.31,129,97.26,129.51h2.55c36.95-.48,52.15-9.75,64.78-16.31s17.92-13.92,18.88-19.68a34.81,34.81,0,0,0,.46-4.36c5.72-2.16,12-4.62,12-4.62l-6-1.67Z"/></g></g></svg>