<svg xmlns="http://www.w3.org/2000/svg" viewBox="0 0 671.45 398.51"><defs><style>.cls-1{fill:#ebebeb;}.cls-2{fill:#fafafa;}.cls-3{fill:#f5f5f5;}.cls-4{fill:#e0e0e0;}.cls-5{fill:#263238;}.cls-6{fill:#455a64;}.cls-7{fill:#b78876;}.cls-8{fill:#aa6550;}.cls-9{fill:#e8505b;}.cls-10,.cls-19{opacity:0.2;}.cls-11,.cls-13{opacity:0.5;}.cls-12,.cls-13,.cls-21{fill:#fff;}.cls-14,.cls-21{opacity:0.3;}.cls-15{fill:#ffbe9d;}.cls-16{fill:#ffb29d;}.cls-17{fill:#eb9078;}.cls-18{opacity:0.4;}.cls-20{fill:#eb996e;}</style></defs><title>Asset 1</title><g id="Layer_2" data-name="Layer 2"><g id="Charts"><rect class="cls-1" x="498.35" y="5.86" width="119.58" height="214.82"/><rect class="cls-2" x="503.13" y="12.09" width="108.79" height="202.19"/><polygon class="cls-3" points="611.92 14.47 503.13 152.86 503.13 12.09 611.92 12.09 611.92 14.47"/><rect class="cls-1" x="503.13" y="70.25" width="111.15" height="2.15"/><rect class="cls-1" x="503.13" y="118.4" width="111.15" height="2.15"/><rect class="cls-1" x="503.13" y="166.55" width="111.15" height="2.15"/><rect class="cls-1" x="483.18" y="142.92" width="148.68" height="5.5" transform="translate(411.85 703.2) rotate(-90)"/><rect class="cls-1" x="524.08" y="12.09" width="2.49" height="59.24"/><rect class="cls-1" x="545.55" y="12.09" width="2.49" height="59.24"/><rect class="cls-1" x="567.03" y="12.09" width="2.49" height="59.24"/><rect class="cls-1" x="588.51" y="12.09" width="2.49" height="59.24"/><rect class="cls-3" x="493.29" y="2.22" width="5.06" height="219.79"/><polygon class="cls-4" points="622.99 222.62 617.93 220.68 617.93 2.22 622.99 2.22 622.99 222.62"/><rect class="cls-4" x="493.29" width="129.7" height="5.86"/><rect class="cls-4" x="489.7" y="223.34" width="136.71" height="5.46"/><polygon class="cls-1" points="617.93 220.68 626.41 223.34 489.7 223.34 498.35 220.68 617.93 220.68"/><path class="cls-1" d="M646.07,307.55c4.84-2.49,10.53-2.82,15.9-1.93,2.88.48,5.89,1.34,7.85,3.51s2.33,6,.08,7.84a7.56,7.56,0,0,1-4.95,1.25c-4.2-.05-8.86-.79-12.22,1.74-1.92,1.44-3.19,3.84-5.48,4.55a5.41,5.41,0,0,1-6-2.65,9.22,9.22,0,0,1-.67-6.83A10.43,10.43,0,0,1,646.07,307.55Z"/><path class="cls-1" d="M635,286.17c3,4.22,8.71,2.82,11.37.25s3.79-6.32,4.82-9.88c2.34-8.14,4.7-16.68,3-25a13.9,13.9,0,0,0-3.19-6.78,7.26,7.26,0,0,0-6.87-2.29c-2.89.77-4.69,3.6-6,6.3a59.64,59.64,0,0,0-5.88,25.54c0,4.12.47,8.43,2.79,11.83"/><path class="cls-1" d="M626.88,292.23c3.21-3.81,3.81-9.37,2.39-14.14s-4.66-8.83-8.38-12.15a45,45,0,0,0-15-8.85,16,16,0,0,0-6.75-1.14,7.09,7.09,0,0,0-5.66,3.42c-1.58,3-.06,6.66,1.57,9.64a114.68,114.68,0,0,0,9.85,15c3,3.81,6.34,7.56,10.84,9.28s9.17,1.52,11.55-1.6"/><path class="cls-4" d="M634.79,349.87a8.71,8.71,0,0,0,.27-1.92c.14-1.4.31-3.15.51-5.24s.57-4.82,1.18-7.68a58.85,58.85,0,0,1,2.79-9.07,33.4,33.4,0,0,1,4.63-8.2A17.38,17.38,0,0,1,650,312.9a16.55,16.55,0,0,1,4.93-1.54,9.34,9.34,0,0,0,1.91-.27,8.1,8.1,0,0,0-1.94,0,14.75,14.75,0,0,0-5.14,1.33,17.34,17.34,0,0,0-6.18,4.91,32.55,32.55,0,0,0-4.79,8.37,55.74,55.74,0,0,0-2.78,9.21,66.6,66.6,0,0,0-1,7.78c-.16,2.22-.23,4-.26,5.27A10.23,10.23,0,0,0,634.79,349.87Z"/><path class="cls-4" d="M635.16,345.84a4.77,4.77,0,0,0,.05-.89c0-.67,0-1.52,0-2.55,0-2.21,0-5.41.11-9.36.2-7.89.88-16.39,2.19-28.37,1.25-11.27,2.91-24.38,4.68-32.91.37-1.93.75-3.68,1.11-5.21s.64-2.85.92-3.92.44-1.82.59-2.47a4.32,4.32,0,0,0,.16-.88,3.6,3.6,0,0,0-.31.84c-.2.64-.44,1.44-.74,2.44s-.66,2.37-1,3.89-.82,3.26-1.23,5.2a290.37,290.37,0,0,0-4.92,30.53c-1.31,12-1.9,22.94-2,30.85,0,4,0,7.17.14,9.38.06,1,.12,1.87.16,2.54A3.38,3.38,0,0,0,635.16,345.84Z"/><path class="cls-4" d="M635.21,324.75a18.66,18.66,0,0,0,0-2.66c-.1-1.71-.33-4.18-.81-7.2a97.19,97.19,0,0,0-2.35-10.5A84.31,84.31,0,0,0,627.64,292a66.3,66.3,0,0,0-12.89-20.08,32.76,32.76,0,0,0-3-2.82c-.47-.39-.88-.78-1.3-1.09l-1.18-.82a17.93,17.93,0,0,0-2.23-1.43c-.13.17,3.17,2.12,7.33,6.55a69.7,69.7,0,0,1,12.57,20,98.1,98.1,0,0,1,4.42,12.31A104.89,104.89,0,0,1,633.82,315c.55,3,.87,5.44,1.06,7.14A16.28,16.28,0,0,0,635.21,324.75Z"/><polygon class="cls-4" points="614.83 361.95 616.94 390.89 654.13 390.89 656.24 361.95 614.83 361.95"/><rect class="cls-4" x="611.24" y="350.54" width="49.44" height="11.41"/><polygon class="cls-1" points="611.24 389.78 611.24 392.95 613.56 392.95 659.86 392.95 659.86 389.78 611.24 389.78"/><polygon class="cls-4" points="615.84 398.51 613.56 392.95 658.09 392.95 655.43 398.51 615.84 398.51"/><path class="cls-3" d="M655.55,371.41a1.5,1.5,0,0,1-.17.26l-.56.74-2.17,2.77-.09.12-.1-.12-5.32-7.37h.31c-1.58,2.25-3.35,4.74-5.24,7.42l-.17.24-.18-.22-6.21-7.4H636c-.1.14-.22.28-.34.43l-5.55,7-.19.23-.17-.24-5.24-7.42h.3l-6.45,7.36-.12.13-.09-.15-2-3.39-.52-.91a1.33,1.33,0,0,1-.15-.32s.08.09.21.29l.58.87,2.12,3.33-.2,0,6.35-7.44.16-.19.14.2,5.29,7.39h-.35l5.54-7,.34-.43.18-.22.18.22,6.2,7.41h-.35l5.29-7.38.16-.22.15.22c2.09,3,3.88,5.53,5.21,7.44h-.19l2.25-2.7.61-.7C655.46,371.48,655.54,371.4,655.55,371.41Z"/><path class="cls-3" d="M656.76,361.75c0,.13-9.32.24-20.81.24s-20.81-.11-20.81-.24,9.31-.23,20.81-.23S656.76,361.63,656.76,361.75Z"/><path class="cls-3" d="M658.64,393.26c0,.13-10.13.23-22.62.23s-22.62-.1-22.62-.23S623.53,393,636,393,658.64,393.13,658.64,393.26Z"/><path class="cls-1" d="M29.28,187.6s-7.57-.54-6.88,16.45,2.43,26,2.43,26-.22,3.77-3.14,3-8.41-4.41-11.12-1.66-1.81,7.2,1.92,12.34S24,260.5,24.68,261.55s1,2.95-1.11,2.77-16-4.92-17.88,1.84S16.58,285.52,18,286.93s1.44,2.29.88,3.14-5.1-1.18-9.12-2.37S.8,285.85.06,289.84,4.94,305.51,26,317.78l10.11,5.05,9.57-6.1c19.69-14.32,24.11-26.5,23-30.39s-5.92-2.75-9.81-1.17-8.21,4.06-8.84,3.27-.66-1.68.56-3.21,12.64-15.35,10.13-21.9-15.94-.43-18,0-2-1.55-1.38-2.65,7.15-13.38,10.35-18.86,3.76-9.93.67-12.48-8.06,1.75-10.89,2.77-3.43-2.7-3.43-2.7.82-9.18-.19-26.16-8.67-15.61-8.67-15.61"/><path class="cls-4" d="M29.88,202.82s0,.12,0,.36,0,.6.08,1c.07.94.16,2.29.27,4,.24,3.48.53,8.53.88,14.77.69,12.47,1.5,29.71,2.33,48.75s1.6,36.29,2.23,48.77c.31,6.22.57,11.27.75,14.77.08,1.73.15,3.08.2,4,0,.45,0,.79,0,1a3.24,3.24,0,0,1,0,.36s0-.12,0-.35,0-.6-.08-1.05c-.06-.93-.16-2.28-.27-4-.23-3.48-.53-8.53-.88-14.77-.69-12.47-1.5-29.71-2.33-48.76S31.5,235.5,30.88,223l-.76-14.78c-.08-1.73-.15-3.08-.2-4,0-.45,0-.8,0-1A3.33,3.33,0,0,1,29.88,202.82Z"/><path class="cls-4" d="M18.05,236.91a3,3,0,0,1,.63.52c.38.35.93.88,1.6,1.54,1.33,1.32,3.13,3.2,5.07,5.3l4.95,5.41,1.5,1.64a3.13,3.13,0,0,1,.53.62,3,3,0,0,1-.63-.52c-.39-.35-.94-.88-1.6-1.55-1.32-1.33-3.09-3.23-5-5.33l-5-5.38-1.51-1.62A3.31,3.31,0,0,1,18.05,236.91Z"/><path class="cls-4" d="M33.33,251.61c-.07-.08,3.62-4,8.26-8.65s8.46-8.45,8.54-8.38-3.62,3.95-8.26,8.65S33.41,251.68,33.33,251.61Z"/><path class="cls-4" d="M33.29,280.91a4,4,0,0,1,.71-.45l2-1.11c1.67-.93,4-2.24,6.46-3.76s4.7-3,6.29-4l1.89-1.26a3.24,3.24,0,0,1,.72-.42,3.86,3.86,0,0,1-.64.54c-.42.34-1,.8-1.81,1.37-1.56,1.12-3.75,2.62-6.25,4.15s-4.82,2.8-6.53,3.68c-.85.43-1.55.78-2,1A3.16,3.16,0,0,1,33.29,280.91Z"/><path class="cls-4" d="M16.54,270.66a2.52,2.52,0,0,1,.7.33l1.83,1c1.54.88,3.65,2.11,6,3.49s4.42,2.65,5.92,3.59c.75.46,1.36.85,1.77,1.12a2.48,2.48,0,0,1,.62.46,3.41,3.41,0,0,1-.69-.33c-.44-.23-1.07-.58-1.84-1-1.54-.87-3.65-2.1-6-3.49s-4.42-2.64-5.92-3.58c-.75-.47-1.36-.85-1.77-1.12A3.22,3.22,0,0,1,16.54,270.66Z"/><path class="cls-4" d="M13.21,296.52a5.74,5.74,0,0,1,.89.43l2.36,1.3c2,1.11,4.7,2.67,7.69,4.41s5.69,3.34,7.63,4.51l2.3,1.41a4.2,4.2,0,0,1,.81.56,6.31,6.31,0,0,1-.89-.43l-2.35-1.3c-2-1.11-4.7-2.67-7.7-4.41s-5.69-3.34-7.63-4.51c-.92-.56-1.69-1-2.29-1.41A4.12,4.12,0,0,1,13.21,296.52Z"/><path class="cls-4" d="M34.46,308.69a5.54,5.54,0,0,1,.88-.59l2.45-1.5c2.08-1.26,4.94-3,8-5s5.87-3.92,7.87-5.31l2.36-1.64A5.87,5.87,0,0,1,57,294a5.85,5.85,0,0,1-.8.69c-.53.42-1.32,1-2.29,1.74-2,1.45-4.7,3.39-7.82,5.41s-6,3.75-8.11,5c-1.06.6-1.92,1.08-2.52,1.39A5.84,5.84,0,0,1,34.46,308.69Z"/><polygon class="cls-4" points="49.66 326.14 21.68 326.14 30.81 395.26 40.52 395.26 49.66 326.14"/><path class="cls-3" d="M23.13,334.64s0,.1.15.24a1.83,1.83,0,0,0,.67.49,3.38,3.38,0,0,0,3-.37c1.13-.62,2.11-1.84,3.63-2.38a7.9,7.9,0,0,1,5.14.1A22,22,0,0,1,40.47,335a32.65,32.65,0,0,0,3.9,2.09,10.63,10.63,0,0,0,2.87.83,4.34,4.34,0,0,0,.81.05c.19,0,.29,0,.29,0a14.49,14.49,0,0,1-3.84-1.16,36.11,36.11,0,0,1-3.81-2.15,21.46,21.46,0,0,0-4.87-2.4,8.23,8.23,0,0,0-5.43-.06,7.2,7.2,0,0,0-2.05,1.27,17,17,0,0,1-1.6,1.24,3.27,3.27,0,0,1-2.72.47A2.78,2.78,0,0,1,23.13,334.64Z"/><path class="cls-3" d="M24.15,347.37s.22-.29.66-.74A6,6,0,0,1,27,345.21a10.15,10.15,0,0,1,3.89-.59,39,39,0,0,1,4.87.67,16.65,16.65,0,0,0,5,.2,13.59,13.59,0,0,0,3.92-1.12,12.46,12.46,0,0,0,2.36-1.4,3.73,3.73,0,0,0,.75-.67,27.3,27.3,0,0,1-3.24,1.78,14.48,14.48,0,0,1-3.84,1,17.67,17.67,0,0,1-4.86-.24A36.87,36.87,0,0,0,31,344.2a10,10,0,0,0-4,.71,5.84,5.84,0,0,0-2.24,1.6,4.47,4.47,0,0,0-.43.62C24.17,347.28,24.14,347.36,24.15,347.37Z"/><path class="cls-3" d="M46.49,354.18a2.56,2.56,0,0,0-.78-.4,8.44,8.44,0,0,0-2.31-.49,14.55,14.55,0,0,0-3.51.2c-1.3.21-2.7.57-4.17.88a17.48,17.48,0,0,1-4.17.47,9,9,0,0,1-3.31-.71,7.67,7.67,0,0,1-2.5-1.87,2.12,2.12,0,0,0,.47.73,5.93,5.93,0,0,0,1.9,1.43,9,9,0,0,0,3.42.84,17,17,0,0,0,4.28-.44c1.49-.32,2.88-.69,4.15-.92a16.08,16.08,0,0,1,3.42-.29A13.22,13.22,0,0,1,46.49,354.18Z"/><path class="cls-3" d="M26.62,363.77a4.54,4.54,0,0,1,2.72-.27,12.64,12.64,0,0,1,2.84,1.06,10.72,10.72,0,0,0,3.69,1A11,11,0,0,0,42.56,364a9,9,0,0,0,1.67-1.28,2.54,2.54,0,0,0,.49-.59,25.17,25.17,0,0,1-2.32,1.59,11.5,11.5,0,0,1-6.49,1.38c-2.65-.15-4.68-1.73-6.52-1.94a4.09,4.09,0,0,0-2.11.18A1.45,1.45,0,0,0,26.62,363.77Z"/><path class="cls-3" d="M28.18,377a5.47,5.47,0,0,0,2.33-.47c1.41-.47,3.15-1.54,5.18-2.35a8.57,8.57,0,0,1,3-.63,5.62,5.62,0,0,1,2.39.55,5.29,5.29,0,0,1,1.72,1.49s0-.24-.26-.59a3.77,3.77,0,0,0-1.31-1.18,5.47,5.47,0,0,0-2.54-.69,8.59,8.59,0,0,0-3.14.62c-2.11.84-3.79,1.95-5.13,2.48S28.17,377,28.18,377Z"/><path class="cls-3" d="M29.55,383.21a6.41,6.41,0,0,0,1.77.57,32.4,32.4,0,0,0,8.92.88,6.31,6.31,0,0,0,1.85-.22c0-.14-2.83,0-6.29-.36S29.59,383.08,29.55,383.21Z"/><path class="cls-5" d="M667.1,397.16c0,.15-149.35.27-333.54.27S0,397.31,0,397.16s149.31-.26,333.56-.26S667.1,397,667.1,397.16Z"/><rect class="cls-6" x="134.74" y="297.1" width="7.31" height="87.63"/><path class="cls-6" d="M189.46,297.1H84.85A11.35,11.35,0,0,1,96.2,285.74h81.91a11.35,11.35,0,0,1,11.35,11.36Z"/><path class="cls-5" d="M144.81,297.32a38.17,38.17,0,0,1-6.41.27,38.24,38.24,0,0,1-6.42-.27,38.24,38.24,0,0,1,6.42-.27A38.17,38.17,0,0,1,144.81,297.32Z"/><path class="cls-6" d="M170.39,392.67h-1a31.13,31.13,0,0,0-62.25,0h-1a32.16,32.16,0,1,1,64.31,0Z"/><path class="cls-5" d="M111.41,392.09a4.82,4.82,0,1,1-4.82-4.83A4.82,4.82,0,0,1,111.41,392.09Z"/><path class="cls-6" d="M174.9,392.31a4.82,4.82,0,1,1-4.82-4.82A4.82,4.82,0,0,1,174.9,392.31Z"/><path class="cls-6" d="M170.08,384.73c0,.15-14,.27-31.25.27s-31.26-.12-31.26-.27,14-.27,31.26-.27S170.08,384.58,170.08,384.73Z"/><path class="cls-6" d="M82.46,210.34v64.51a15.32,15.32,0,0,0,15.32,15.32h49.71l-6.75-79.83a6.83,6.83,0,0,0-6.83-6.83H89.29A6.83,6.83,0,0,0,82.46,210.34Z"/><path class="cls-5" d="M100,285.74a4.77,4.77,0,0,1-.55-.61c-.35-.41-.84-1-1.43-1.87a30.62,30.62,0,0,1-5.21-13.62,53,53,0,0,1-.26-6.89c0-4.84,0-10.15,0-15.73,0-11.14,0-21.22.07-28.58,0-3.62.07-6.57.09-8.66,0-1,0-1.77,0-2.36a4,4,0,0,1,0-.82,5.2,5.2,0,0,1,.05.82c0,.59,0,1.37,0,2.36,0,2.09,0,5,.08,8.66,0,7.36,0,17.44.08,28.58,0,5.58,0,10.89,0,15.73a53.78,53.78,0,0,0,.21,6.83,30.32,30.32,0,0,0,1.25,5.8,31.71,31.71,0,0,0,3.69,7.76c.57.85,1,1.5,1.35,1.93A4.56,4.56,0,0,1,100,285.74Z"/><path class="cls-5" d="M127.1,285.55a10.56,10.56,0,0,1-1.58.11l-4.3.11c-3.64.08-8.66.14-14.21.18l-7.82.05a26.75,26.75,0,0,0-6.3.57,10.4,10.4,0,0,0-3.8,1.82c-.81.6-1.17,1.05-1.21,1s.07-.12.24-.33a6.57,6.57,0,0,1,.84-.83,9.82,9.82,0,0,1,3.84-2,25.61,25.61,0,0,1,6.38-.7c2.4-.06,5-.06,7.82-.09,5.55,0,10.58-.05,14.22,0l4.3,0A8.24,8.24,0,0,1,127.1,285.55Z"/><path class="cls-7" d="M237.89,176.55l-4.85,5-9.71-10.35,3.23-5.52c.17-.71.35-1.5.52-2.39a10,10,0,0,0,.06-3.18,14.88,14.88,0,0,0-1-3.83c-.56-1.07.44-2.28,1.41-1.79s2.58,3.4,2.81,7.31,3.73-1.07,5-2.86,5.61-7.13,6.47-7.15c1.26,0,1.53,1.34.18,3.1s-5,7.32-4.06,8h0a4.75,4.75,0,0,1,4.81,2.69c.83,1.77,1.74,4.26.88,5.34A61.73,61.73,0,0,1,237.89,176.55Z"/><polygon class="cls-7" points="223.33 171.19 188.46 199.89 202.46 219.45 233.04 181.53 223.33 171.19"/><path class="cls-8" d="M241.32,163.7a13.1,13.1,0,0,1-1.74,1.94c-.6.62-1.27,1.29-2,2l-1.19,1.18a2.46,2.46,0,0,1-1.74.87,1.2,1.2,0,0,1-1-.56,1.62,1.62,0,0,1-.25-1,2.8,2.8,0,0,1,.82-1.61,23.17,23.17,0,0,1,2-2,9.5,9.5,0,0,1,2.11-1.55,21.81,21.81,0,0,1-1.86,1.82c-.57.56-1.23,1.25-1.92,2a2.4,2.4,0,0,0-.67,1.31.88.88,0,0,0,.73,1,2.11,2.11,0,0,0,1.36-.72l1.2-1.15,2.07-1.93A11.91,11.91,0,0,1,241.32,163.7Z"/><path class="cls-8" d="M242.57,166.22a12,12,0,0,1-1.66,1.88L239,170c-.38.36-.72.74-1.17,1.13a3.08,3.08,0,0,1-.79.48,1.36,1.36,0,0,1-1,0,1.51,1.51,0,0,1-.74-1.77,3.45,3.45,0,0,1,.9-1.45c.71-.76,1.39-1.39,2-1.9a9,9,0,0,1,2-1.49,19.27,19.27,0,0,1-1.79,1.76c-.55.53-1.19,1.19-1.86,1.95a3,3,0,0,0-.77,1.25,1,1,0,0,0,.46,1.17c.4.19.91-.08,1.3-.41s.79-.74,1.16-1.08l2-1.85A12.07,12.07,0,0,1,242.57,166.22Z"/><path class="cls-8" d="M244,168.61a10.89,10.89,0,0,1-1.6,1.81l-1.83,1.86a7.76,7.76,0,0,1-1.18,1.05,1.91,1.91,0,0,1-.87.33,1.23,1.23,0,0,1-1-.35,1.67,1.67,0,0,1-.28-1.82,4.45,4.45,0,0,1,1-1.31,23.35,23.35,0,0,1,1.9-1.81,8.41,8.41,0,0,1,2-1.42,15.67,15.67,0,0,1-1.71,1.69c-.53.51-1.14,1.14-1.79,1.87a4.13,4.13,0,0,0-.84,1.17,1.17,1.17,0,0,0,.17,1.26,1,1,0,0,0,1.21,0,7.28,7.28,0,0,0,1.12-1l1.91-1.78A10.81,10.81,0,0,1,244,168.61Z"/><path class="cls-8" d="M232.9,174.64a10.85,10.85,0,0,1,.23-1.46,7.59,7.59,0,0,0-.34-3.45,7.8,7.8,0,0,0-1.88-2.92c-.65-.63-1.14-.93-1.1-1a2.92,2.92,0,0,1,1.34.73,6.72,6.72,0,0,1,2.35,6.7A2.79,2.79,0,0,1,232.9,174.64Z"/><path class="cls-9" d="M164,203.67l5.2,52.23L105,257.3l.34-42.05L100.69,179c3-17,26.83-18.13,26.83-18.13l18.67-.3a32.78,32.78,0,0,1,18.36,4.07s18.94,10.31,18.77,36.52"/><path class="cls-9" d="M105.58,170.16c-5.6,5.35-11,16.09-9,37.61l29.84-1.23-.77-29.44a10,10,0,0,0-3.85-7.6h0A12.47,12.47,0,0,0,105.58,170.16Z"/><path class="cls-2" d="M168,248.43a2.85,2.85,0,0,1-.53.4,8.8,8.8,0,0,1-1.74.81,13.61,13.61,0,0,1-7,.27c-2.95-.53-6.2-2-9.94-3a33.4,33.4,0,0,0-12.51-.78c-4.46.52-8.45,2.16-12.08,3.58a37.85,37.85,0,0,1-10,2.8,16.51,16.51,0,0,1-7-.68,11.24,11.24,0,0,1-1.74-.79,2.64,2.64,0,0,1-.56-.36s.8.45,2.36,1a16.88,16.88,0,0,0,6.87.51,38.78,38.78,0,0,0,9.88-2.87c3.6-1.44,7.65-3.13,12.19-3.66a33.48,33.48,0,0,1,12.69.83c1.91.5,3.65,1.16,5.29,1.73a37.9,37.9,0,0,0,4.6,1.36,13.92,13.92,0,0,0,6.85-.1A13.54,13.54,0,0,0,168,248.43Z"/><g class="cls-10"><path d="M105.06,248.06l.26.2a23.68,23.68,0,0,0,24.81,2.39c3-1.56,5.69-3.77,8.9-4.87,4.55-1.55,9.53-.65,14.28.11s10.42,1.27,14.72-.89l-.56-6.59L105.22,240"/></g><path class="cls-9" d="M168.14,393.48l-.15-6.24-16.69.57.09,9.75,1,.06c4.58.27,23.34,1,26.41.1C182.26,396.69,168.14,393.48,168.14,393.48Z"/><g class="cls-11"><path class="cls-12" d="M157.42,397.44a5.87,5.87,0,0,0-2-3.66,4.85,4.85,0,0,0-4.07-1.12l.06,4.66Z"/></g><path class="cls-13" d="M175,395.29s5,1.44,4.33,2.25-19.6.77-28,0l0-.38,22.15.25S174.07,395.33,175,395.29Z"/><path class="cls-5" d="M151.16,397.17l.29,0,.82.05,3,.13c2.55.1,6.08.19,10,.21s7.42-.06,10-.14l3-.12.82,0,.29,0h-1.11l-3,.06c-2.55,0-6.08.09-10,.07s-7.42-.08-10-.14l-3-.07h-1.11Z"/><path class="cls-5" d="M173.56,397.69a6.53,6.53,0,0,1,.57-1.44,6.79,6.79,0,0,1,1-1.16,2.71,2.71,0,0,0-1.6,2.6Z"/><path class="cls-5" d="M168.66,395.19c.05,0,.28-.26.53-.64s.4-.72.35-.75-.28.26-.52.64S168.61,395.16,168.66,395.19Z"/><path class="cls-5" d="M167.32,394.47s.3-.13.58-.39.49-.5.46-.54-.3.13-.59.39S167.28,394.43,167.32,394.47Z"/><path class="cls-5" d="M166.47,392.9a3.84,3.84,0,0,0,1.74,0,2.18,2.18,0,0,0-.87-.11A1.82,1.82,0,0,0,166.47,392.9Z"/><path class="cls-5" d="M166.18,391.79a1.71,1.71,0,0,0,1,.29,1.77,1.77,0,0,0,1-.13,4.83,4.83,0,0,0-1-.07A6.36,6.36,0,0,0,166.18,391.79Z"/><path class="cls-5" d="M169.23,393.74a3.22,3.22,0,0,0,1.07,0,6.49,6.49,0,0,0,1.14-.24,3.76,3.76,0,0,0,.65-.27.59.59,0,0,0,.26-.33.42.42,0,0,0-.16-.43,2,2,0,0,0-2.42.57,1.84,1.84,0,0,0-.35.71.54.54,0,0,0,0,.29,2.94,2.94,0,0,1,.49-.91,1.83,1.83,0,0,1,.91-.59,1.65,1.65,0,0,1,1.27.09c.17.12.11.32-.08.43a2.87,2.87,0,0,1-.6.26,6.58,6.58,0,0,1-1.1.28C169.64,393.7,169.23,393.7,169.23,393.74Z"/><path class="cls-5" d="M169.51,393.79a1.1,1.1,0,0,0,.12-.74,1.63,1.63,0,0,0-.29-.78,1.07,1.07,0,0,0-.89-.55.42.42,0,0,0-.33.49,1.15,1.15,0,0,0,.18.48,3,3,0,0,0,.51.65c.33.33.59.45.61.43s-.22-.19-.51-.53a3.4,3.4,0,0,1-.45-.64c-.14-.23-.24-.63,0-.68s.54.24.7.46a1.71,1.71,0,0,1,.3.69A4.93,4.93,0,0,1,169.51,393.79Z"/><path class="cls-5" d="M151.51,392.62s.48,0,1.23.05a5.43,5.43,0,0,1,2.68,1.11,5.52,5.52,0,0,1,1.67,2.37c.25.72.27,1.2.31,1.19a.94.94,0,0,0,0-.33,4.7,4.7,0,0,0-.18-.9,5.07,5.07,0,0,0-4.47-3.58,4.26,4.26,0,0,0-.91,0A1.12,1.12,0,0,0,151.51,392.62Z"/><path class="cls-5" d="M159.52,395.82a9.79,9.79,0,0,0,2.43.25,9.37,9.37,0,0,0,2.43-.19c0-.06-1.09,0-2.43,0S159.53,395.76,159.52,395.82Z"/><path class="cls-5" d="M156.26,395.81s.09.23.2.48.17.47.23.46.08-.26-.05-.54S156.3,395.77,156.26,395.81Z"/><path class="cls-5" d="M155,394.28s.06.21.24.38.34.29.38.25-.07-.21-.24-.39S155.08,394.24,155,394.28Z"/><path class="cls-5" d="M153.28,393.57c0,.06.23.06.48.15s.42.21.46.18-.09-.27-.4-.38S153.26,393.52,153.28,393.57Z"/><path class="cls-5" d="M152,393.24c0,.05.08.14.21.19s.27.06.29,0-.08-.14-.21-.2S152.05,393.19,152,393.24Z"/><polygon class="cls-14" points="151.34 391.72 168.12 391.02 168.12 390.34 151.3 390.34 151.34 391.72"/><path class="cls-9" d="M222.86,392.59l-.16-6.39-17.08.59.09,10,1.06.07c4.7.27,23.89,1,27,.1C237.31,395.87,222.86,392.59,222.86,392.59Z"/><g class="cls-11"><path class="cls-12" d="M211.89,396.64a6,6,0,0,0-2.06-3.74,4.94,4.94,0,0,0-4.16-1.15l.06,4.77Z"/></g><path class="cls-13" d="M229.92,394.45s5.06,1.47,4.43,2.3-20.07.78-28.64,0l0-.38,22.67.25S228.93,394.48,229.92,394.45Z"/><path class="cls-5" d="M205.48,396.37l.29,0,.84.06,3.09.14c2.61.1,6.22.19,10.21.2s7.61-.05,10.22-.13l3.09-.13.84,0,.29,0a1.29,1.29,0,0,0-.29,0h-.84l-3.1.06c-2.61.05-6.22.09-10.21.08s-7.59-.08-10.2-.15l-3.1-.07-.84,0Z"/><path class="cls-5" d="M228.4,396.9a7.44,7.44,0,0,1,.58-1.48,7.35,7.35,0,0,1,1.06-1.18,2.76,2.76,0,0,0-1.64,2.66Z"/><path class="cls-5" d="M223.39,394.34c.05,0,.29-.26.54-.65s.41-.74.36-.77-.29.26-.54.66S223.34,394.31,223.39,394.34Z"/><path class="cls-5" d="M222,393.61s.31-.14.6-.4.5-.51.47-.56-.31.14-.61.4S222,393.56,222,393.61Z"/><path class="cls-5" d="M221.14,392a2.08,2.08,0,0,0,.89.11,1.91,1.91,0,0,0,.89-.09,1.88,1.88,0,0,0-.89-.11A1.91,1.91,0,0,0,221.14,392Z"/><path class="cls-5" d="M220.85,390.86a1.69,1.69,0,0,0,1,.29,1.74,1.74,0,0,0,1-.13,5,5,0,0,0-1-.07A6.62,6.62,0,0,0,220.85,390.86Z"/><path class="cls-5" d="M224,392.85a2.87,2.87,0,0,0,1.09,0,6.88,6.88,0,0,0,1.17-.25,3.61,3.61,0,0,0,.66-.28.61.61,0,0,0,.28-.34.44.44,0,0,0-.17-.43,2,2,0,0,0-2.48.58,1.87,1.87,0,0,0-.36.73.71.71,0,0,0,0,.29,3.36,3.36,0,0,1,.5-.93,1.94,1.94,0,0,1,.94-.6,1.64,1.64,0,0,1,1.3.09c.17.13.11.33-.09.45a4.14,4.14,0,0,1-.61.26,8.2,8.2,0,0,1-1.13.29C224.39,392.82,224,392.82,224,392.85Z"/><path class="cls-5" d="M224.25,392.91a1.05,1.05,0,0,0,.13-.76,1.76,1.76,0,0,0-.3-.8,1.1,1.1,0,0,0-.91-.56.43.43,0,0,0-.33.5,1,1,0,0,0,.18.49,3.54,3.54,0,0,0,.51.67,1.69,1.69,0,0,0,.63.44s-.22-.2-.52-.54a4,4,0,0,1-.45-.66c-.15-.23-.26-.65,0-.7s.55.25.72.47a2,2,0,0,1,.31.71A4.3,4.3,0,0,1,224.25,392.91Z"/><path class="cls-5" d="M205.83,391.72a11.75,11.75,0,0,1,1.26,0,5.59,5.59,0,0,1,2.74,1.14,5.48,5.48,0,0,1,1.71,2.43c.26.73.28,1.22.32,1.21a1,1,0,0,0,0-.34,5,5,0,0,0-.18-.92,5.18,5.18,0,0,0-4.57-3.66,4.54,4.54,0,0,0-.94,0C206,391.67,205.83,391.7,205.83,391.72Z"/><path class="cls-5" d="M214,395a14.15,14.15,0,0,0,5,.06c0-.06-1.11,0-2.48,0S214,394.93,214,395Z"/><path class="cls-5" d="M210.7,395s.09.24.2.5.17.48.23.47.09-.27,0-.56S210.73,394.93,210.7,395Z"/><path class="cls-5" d="M209.44,393.41s.07.21.25.39.35.29.39.25-.07-.21-.25-.39S209.48,393.37,209.44,393.41Z"/><path class="cls-5" d="M207.65,392.69c0,.05.23.05.48.14s.43.22.48.19-.1-.28-.41-.38S207.63,392.63,207.65,392.69Z"/><path class="cls-5" d="M206.37,392.35s.07.14.21.19.28.06.3,0-.08-.14-.22-.2S206.39,392.29,206.37,392.35Z"/><polygon class="cls-14" points="205.66 390.79 222.83 390.07 222.83 389.37 205.62 389.37 205.66 390.79"/><path class="cls-5" d="M208.56,256.52l-68.17-.86,14.25,32,39.1.3a5,5,0,0,1,4.9,4.73l4.2,98,26.37-2-2.67-112.22a20.69,20.69,0,0,0-18-20Z"/><path class="cls-5" d="M143.78,290.33l2.89,101.25,32.71-2.33s-1.81-95.5-4.25-121.72C173.45,249.59,105,257.3,105,257.3c-1,35.73,38.79,33,38.79,33"/><path class="cls-6" d="M143.39,282.41a38.79,38.79,0,0,1,.52,9.13,38.79,38.79,0,0,1-.52-9.13Z"/><path class="cls-6" d="M142.2,255.85a2.17,2.17,0,0,1,.58,0l1.67,0c1.44,0,3.54.11,6.13.25s5.67.38,9.07.89a26.54,26.54,0,0,1,10.51,3.77,12,12,0,0,1,2.25,2,7.65,7.65,0,0,1,1.47,2.52,25.56,25.56,0,0,1,1.08,5.31,87.69,87.69,0,0,1,.38,9.11c0,2.53,0,4.61,0,6.13,0,.67,0,1.22,0,1.66a3.79,3.79,0,0,1,0,.59,2.3,2.3,0,0,1-.09-.58c0-.38-.08-.94-.11-1.67-.08-1.44-.13-3.54-.18-6.13s-.1-5.67-.49-9.05a25.84,25.84,0,0,0-1.09-5.19,8.67,8.67,0,0,0-3.53-4.22,26.59,26.59,0,0,0-10.28-3.72c-3.37-.53-6.44-.8-9-1l-6.11-.43-1.67-.14A3.35,3.35,0,0,1,142.2,255.85Z"/><path class="cls-5" d="M96.57,207.77a3,3,0,0,0,.52,0l1.49,0,5.48-.2c4.63-.2,11-.5,18.07-.86l3.62-.19.24,0v-.23c0-6.18-.06-11.64-.08-15.65,0-1.91-.06-3.47-.08-4.64,0-.49,0-.91,0-1.24a1.18,1.18,0,0,0,0-.44,1.89,1.89,0,0,0,0,.44c0,.33,0,.75,0,1.24,0,1.17,0,2.73-.07,4.64,0,4,0,9.47-.09,15.65l.24-.25-3.62.18c-7,.37-13.44.73-18.06,1l-5.47.36-1.49.13A1.59,1.59,0,0,0,96.57,207.77Z"/><path class="cls-5" d="M110.42,165.44a17,17,0,0,1,3.48-.11,12.35,12.35,0,0,1,7.38,3.54,14.71,14.71,0,0,1,3.79,7.33c.43,2.12.34,3.48.43,3.47a2.51,2.51,0,0,0,.11-.94,14.53,14.53,0,0,0-4-10.22,12.13,12.13,0,0,0-7.71-3.54,9.5,9.5,0,0,0-2.6.18A2.63,2.63,0,0,0,110.42,165.44Z"/><path class="cls-5" d="M164,180.49a14.83,14.83,0,0,0-.18,2.82c0,1.75-.06,4.2,0,6.89s.1,4.85.15,6.74c0,1.07,0,1.85,0,2.61,0-.87,0-1.75,0-3,0-1.89.09-4.19.14-6.74s0-4.89,0-6.59A16.18,16.18,0,0,0,164,180.49Z"/><path class="cls-7" d="M100,207.79l.72,29.42a11.19,11.19,0,0,0,13.56,10.33l44.47-12.3,3.34-16.44-41.59,8-.53-20Z"/><path class="cls-8" d="M115.83,234a2.6,2.6,0,0,1-.15-1.4,6.86,6.86,0,0,1,3.65-5.54c.79-.4,1.33-.48,1.35-.42a8.46,8.46,0,0,0-4.85,7.36Z"/><path class="cls-2" d="M125.23,188.05a1.33,1.33,0,0,1,0,.35,6.8,6.8,0,0,1-.25,1,8.94,8.94,0,0,1-7,5.75,14.79,14.79,0,0,1-6.77-1,25.46,25.46,0,0,0-6.51-1.66,9,9,0,0,0-5.18,1.28,9.57,9.57,0,0,0-2.74,2.43c-.53.7-.75,1.14-.79,1.11s0-.12.12-.33a6.47,6.47,0,0,1,.5-.9,9,9,0,0,1,2.72-2.62,9.16,9.16,0,0,1,5.4-1.45,24.79,24.79,0,0,1,6.64,1.64,14.8,14.8,0,0,0,6.54,1.05,8.69,8.69,0,0,0,4.78-2.35,9.47,9.47,0,0,0,2.09-3C125.08,188.52,125.18,188,125.23,188.05Z"/><path class="cls-2" d="M122.43,169.83s-.15.26-.51.66a12.44,12.44,0,0,1-1.71,1.52,14.69,14.69,0,0,1-14.41,1.77,12.49,12.49,0,0,1-2-1.06c-.45-.29-.68-.49-.66-.52s1,.59,2.82,1.24A15.49,15.49,0,0,0,120,171.71C121.57,170.65,122.37,169.76,122.43,169.83Z"/><path class="cls-2" d="M178,180.76a8.22,8.22,0,0,0-1.57-1.53,8.68,8.68,0,0,0-5.66-1.43c-2.53.14-5.33,1.48-8.14,3.29-1.43.9-2.89,1.91-4.51,2.81a17.42,17.42,0,0,1-5.38,2,11,11,0,0,1-5.73-.54,26.92,26.92,0,0,1-4.77-2.4c-2.87-1.77-5.53-3.31-8-3.7a8.28,8.28,0,0,0-5.73,1,8.18,8.18,0,0,0-1.64,1.46,2.53,2.53,0,0,1,.31-.49,5.66,5.66,0,0,1,1.21-1.14,8.28,8.28,0,0,1,5.91-1.18c2.61.35,5.35,1.91,8.22,3.65a27,27,0,0,0,4.7,2.32,10.42,10.42,0,0,0,5.47.52,17,17,0,0,0,5.22-2c1.6-.87,3.06-1.87,4.5-2.76,2.85-1.81,5.74-3.16,8.38-3.26a8.77,8.77,0,0,1,5.8,1.63,5.66,5.66,0,0,1,1.16,1.2A3.27,3.27,0,0,1,178,180.76Z"/><path class="cls-2" d="M164,165a7.53,7.53,0,0,1-2.11,1.23,18.87,18.87,0,0,1-5.68,1.53,18.59,18.59,0,0,1-5.88-.28,7.51,7.51,0,0,1-2.32-.74,29.91,29.91,0,0,0,8.14.51A30.3,30.3,0,0,0,164,165Z"/><path class="cls-2" d="M155.74,209.5s-.4-.35-1.2-.83a8.27,8.27,0,0,0-3.76-1.06,13.32,13.32,0,0,0-5.7,1.11c-2.07.8-4.21,2-6.63,3a23.67,23.67,0,0,1-13.08,1.67,15.11,15.11,0,0,1-3.83-1.25,10.77,10.77,0,0,1-1-.53c-.22-.13-.32-.21-.31-.22a21.53,21.53,0,0,0,5.17,1.63,24.29,24.29,0,0,0,12.82-1.78c2.37-1,4.52-2.19,6.64-3a13.42,13.42,0,0,1,5.9-1,7.91,7.91,0,0,1,3.84,1.26,4.69,4.69,0,0,1,.85.7C155.67,209.38,155.75,209.48,155.74,209.5Z"/><path class="cls-7" d="M139.64,173.55h0a10.64,10.64,0,0,0,10.64-10.77c0-3.7-.1-6.9-.1-6.9s8.55-.79,9.18-9.25.36-28,.36-28h0a29.49,29.49,0,0,0-29.81,1.9l-1.31.89L129,163A10.65,10.65,0,0,0,139.64,173.55Z"/><path class="cls-8" d="M150.2,155.76a19.69,19.69,0,0,1-10.85-3.82s2.24,6.26,10.74,6Z"/><path class="cls-7" d="M130.78,130.76c-.15-.06-5.36-.73-4.87,5.41s6.54,3.62,6.53,3.44S130.78,130.76,130.78,130.76Z"/><path class="cls-8" d="M130.39,137.6s-.1.09-.28.18a1,1,0,0,1-.79.09,2.67,2.67,0,0,1-1.42-2.28,3.47,3.47,0,0,1,.18-1.56,1.21,1.21,0,0,1,.74-.88.53.53,0,0,1,.65.24c.1.16.07.29.1.3s.13-.12.06-.37a.7.7,0,0,0-.28-.36.79.79,0,0,0-.6-.11,1.51,1.51,0,0,0-1,1,3.69,3.69,0,0,0-.24,1.74,2.78,2.78,0,0,0,1.78,2.53,1.13,1.13,0,0,0,1-.24C130.39,137.75,130.41,137.61,130.39,137.6Z"/><path class="cls-5" d="M159.78,120.08c2.09-.51,2.84-3.64,2.76-5.8a5.94,5.94,0,0,0-3.52-5,7.7,7.7,0,0,0-6.27.1,6.77,6.77,0,0,0-13.37.37c-.2-1.64-2-2.55-3.7-2.65a5.44,5.44,0,0,0-4.47,1.64,3.34,3.34,0,0,0,0,4.46,7.54,7.54,0,0,0-5.25,1.26,5.53,5.53,0,0,0-2.34,4.75,4.42,4.42,0,0,0,3.31,4c.62.12.77-.29,1.11.25a5.49,5.49,0,0,1,.24,1.77,24.08,24.08,0,0,0,.35,5.8,2.35,2.35,0,0,1,3,1.32,6.82,6.82,0,0,1,.33,3.54c.53.79,1.84.55,2.41-.2a4.53,4.53,0,0,0,.62-2.7l.12-9.8a3.25,3.25,0,0,0,4.82-2.68,6.47,6.47,0,0,0,10-1.21,15.24,15.24,0,0,0,3.22,2.13,5.17,5.17,0,0,0,3.76.33c1.22-.42,2.94-.33,2.92-1.62"/><path class="cls-5" d="M157.49,132.17a1.2,1.2,0,0,1-1.15,1.2,1.13,1.13,0,0,1-1.22-1.07,1.18,1.18,0,0,1,1.14-1.2A1.16,1.16,0,0,1,157.49,132.17Z"/><path class="cls-5" d="M157.74,130.84c-.14.15-1-.51-2.32-.51s-2.21.64-2.35.49.08-.35.49-.65a3.23,3.23,0,0,1,1.88-.58,3.08,3.08,0,0,1,1.85.6C157.68,130.49,157.82,130.77,157.74,130.84Z"/><path class="cls-5" d="M145,132.47a1.18,1.18,0,0,1-1.14,1.2,1.13,1.13,0,0,1-1.22-1.07,1.18,1.18,0,0,1,1.14-1.2A1.14,1.14,0,0,1,145,132.47Z"/><path class="cls-5" d="M145.19,131.08c-.15.15-1.05-.51-2.33-.51s-2.21.64-2.35.48.08-.34.49-.64a3.18,3.18,0,0,1,1.88-.58,3.08,3.08,0,0,1,1.85.6C145.12,130.73,145.26,131,145.19,131.08Z"/><path class="cls-5" d="M149.82,140.55a8.62,8.62,0,0,1,2.08-.37c.32,0,.63-.1.69-.33a1.69,1.69,0,0,0-.22-1q-.47-1.19-1-2.49a43.22,43.22,0,0,1-2.17-6.49,43.11,43.11,0,0,1,2.68,6.3c.33.88.63,1.71.93,2.5A2,2,0,0,1,153,140a.83.83,0,0,1-.54.48,2.43,2.43,0,0,1-.55.08A8.41,8.41,0,0,1,149.82,140.55Z"/><path class="cls-5" d="M146.06,141.43c.21,0,.21,1.38,1.4,2.36s2.66.83,2.67,1-.32.27-.95.28a3.41,3.41,0,0,1-2.23-.77,3,3,0,0,1-1.08-2C145.81,141.77,146,141.43,146.06,141.43Z"/><path class="cls-5" d="M145.52,126.07c-.13.35-1.41.18-2.9.36s-2.72.59-2.91.28c-.09-.15.12-.48.61-.81a4.75,4.75,0,0,1,2.15-.76,4.85,4.85,0,0,1,2.27.27C145.29,125.63,145.57,125.9,145.52,126.07Z"/><path class="cls-5" d="M157.27,127.14c-.22.29-1.1,0-2.16,0s-2,.2-2.16-.1.05-.44.44-.72a3,3,0,0,1,1.76-.47,3,3,0,0,1,1.73.58C157.25,126.7,157.37,127,157.27,127.14Z"/><path class="cls-6" d="M123.11,118.3a2.34,2.34,0,0,0,.39.91,4.35,4.35,0,0,0,2.49,1.33,10,10,0,0,0,4.52.18,5.26,5.26,0,0,0,2.43-1.32,2.79,2.79,0,0,0,.92-2.74,1.31,1.31,0,0,0-1.14-.88.91.91,0,0,0-1,.86,3.11,3.11,0,0,0,2,2.75,4.79,4.79,0,0,0,3.84,0,8,8,0,0,0,3.26-2.64,3.86,3.86,0,0,0,.77-2,1.5,1.5,0,0,0-1.08-1.52,1.92,1.92,0,0,0-1.93.51,2.48,2.48,0,0,0-.55,2,4.18,4.18,0,0,0,3.25,3,6.83,6.83,0,0,0,4.81-.53,6.42,6.42,0,0,0,3.24-3.54,2.41,2.41,0,0,0-.18-2.18,1.35,1.35,0,0,0-1.81-.53,1.89,1.89,0,0,0-.91,1.81,3.69,3.69,0,0,0,.9,2,6.36,6.36,0,0,0,3.78,2.15c2.84.48,5.85-1.25,6.57-3.7a2.36,2.36,0,0,0-1.38-2.9,2,2,0,0,0-2.4,1.62,3.57,3.57,0,0,0,.72,2.9,4.49,4.49,0,0,0,2.25,1.57,4.19,4.19,0,0,0,2.4.06,4.3,4.3,0,0,0,1.76-1,4.66,4.66,0,0,0,1.37-2.47c.12-.65.08-1,.11-1a3,3,0,0,1,0,1,4.71,4.71,0,0,1-1.34,2.6,4.33,4.33,0,0,1-1.83,1.11,4.26,4.26,0,0,1-2.55,0,4.92,4.92,0,0,1-2.44-1.65,3.94,3.94,0,0,1-.81-3.18,2.65,2.65,0,0,1,1-1.55,2.11,2.11,0,0,1,1.89-.38,2.78,2.78,0,0,1,1.69,3.4,5.57,5.57,0,0,1-2.69,3.24,6.65,6.65,0,0,1-4.38.82,6.84,6.84,0,0,1-4.08-2.3,4.19,4.19,0,0,1-1-2.28,2.38,2.38,0,0,1,1.16-2.29,1.71,1.71,0,0,1,1.38-.16,2.13,2.13,0,0,1,1.11.84,3,3,0,0,1,.24,2.63,6.92,6.92,0,0,1-3.5,3.85,7.32,7.32,0,0,1-5.17.56,5.85,5.85,0,0,1-2.32-1.2,3.81,3.81,0,0,1-1.3-2.24,3,3,0,0,1,.68-2.47,2.38,2.38,0,0,1,2.44-.64,1.91,1.91,0,0,1,1.07.76,2.14,2.14,0,0,1,.36,1.24,4.22,4.22,0,0,1-.87,2.23,8.46,8.46,0,0,1-3.48,2.79,5.28,5.28,0,0,1-4.2-.07,4.37,4.37,0,0,1-1.6-1.28,2.73,2.73,0,0,1-.61-1.91,1.31,1.31,0,0,1,.48-.92,1.29,1.29,0,0,1,1-.27,1.69,1.69,0,0,1,1.45,1.14,3.15,3.15,0,0,1-1,3.1,5.65,5.65,0,0,1-2.6,1.36,10,10,0,0,1-4.64-.26,4.34,4.34,0,0,1-2.52-1.47,1.72,1.72,0,0,1-.3-.71A.74.74,0,0,1,123.11,118.3Z"/><polygon class="cls-4" points="135.96 235.24 213.53 235.24 226.32 185.7 161.6 185.7 151.35 232.01 135.96 232.37 135.96 235.24"/><rect class="cls-6" x="523.97" y="294.93" width="7.31" height="87.63" transform="translate(1055.26 677.5) rotate(180)"/><path class="cls-5" d="M475.88,298.9H580.49a11.36,11.36,0,0,0-11.35-11.36H487.23a11.36,11.36,0,0,0-11.35,11.36Z"/><path class="cls-5" d="M520.53,299.12a76.34,76.34,0,0,0,12.83,0,79.27,79.27,0,0,0-12.83,0Z"/><path class="cls-6" d="M495.64,390.51h1a31.13,31.13,0,1,1,62.25,0h1a32.16,32.16,0,1,0-64.31,0Z"/><path class="cls-5" d="M554.61,392.11a4.83,4.83,0,1,0,4.82-4.83A4.82,4.82,0,0,0,554.61,392.11Z"/><path class="cls-6" d="M491.09,391.44a4.82,4.82,0,1,0,4.82-4.82A4.82,4.82,0,0,0,491.09,391.44Z"/><path class="cls-6" d="M496,382.57c0,.15,14,.27,31.25.27s31.25-.12,31.25-.27-14-.27-31.25-.27S496,382.42,496,382.57Z"/><path class="cls-5" d="M583.56,208.18v64.51A15.32,15.32,0,0,1,568.24,288H518.53l6.76-79.83a6.82,6.82,0,0,1,6.82-6.83h44.63A6.82,6.82,0,0,1,583.56,208.18Z"/><path class="cls-6" d="M566,287.54a1.37,1.37,0,0,1,.12-.18l.36-.53c.33-.46.8-1.15,1.37-2.05a33.91,33.91,0,0,0,3.7-8.22,32.72,32.72,0,0,0,1.23-6.1,61.32,61.32,0,0,0,.2-7.16c0-5.08,0-10.65,0-16.49,0-11.68.06-22.25.07-30,0-3.8.07-6.89.09-9.08l0-2.47a4.35,4.35,0,0,1,.05-.86,5.65,5.65,0,0,1,0,.86c0,.61,0,1.43,0,2.47,0,2.19.05,5.28.08,9.08,0,7.71.05,18.28.08,30,0,5.84,0,11.41,0,16.49a60.08,60.08,0,0,1-.25,7.21,32.42,32.42,0,0,1-1.31,6.16,32,32,0,0,1-3.88,8.22c-.6.89-1.1,1.56-1.46,2A3.71,3.71,0,0,1,566,287.54Z"/><path class="cls-6" d="M538.92,287.58a8.35,8.35,0,0,1,1.58-.09l4.31-.05c3.64,0,8.67,0,14.22,0,2.77,0,5.42,0,7.82.09a25.66,25.66,0,0,1,6.38.7,10,10,0,0,1,3.84,2,6.31,6.31,0,0,1,.83.84,1.28,1.28,0,0,1,.25.32c0,.05-.4-.4-1.21-1a10.23,10.23,0,0,0-3.81-1.81,26.05,26.05,0,0,0-6.29-.58L559,288c-5.54,0-10.56-.1-14.2-.17l-4.31-.12A9.23,9.23,0,0,1,538.92,287.58Z"/><path class="cls-15" d="M563.29,223.14c-1.17-9.67-2.73-17.91-2.73-17.91H539.61s2.6,12.26,2,15.11c-.51,2.47-41.11,4.11-51.69,4.28-.63-.47-1.55.32-2.36-.39a8.25,8.25,0,0,1-1.8-2.22,12.94,12.94,0,0,1-1.45-3.28,1.08,1.08,0,0,0-2-.46c-.42.91.05,3.93,2.07,6.84s-3.26,1.4-5.2.88-8-1.82-8.59-1.34c-.92.71-.35,1.85,1.59,2.32s7.66,2.29,7.35,3.33-10.1-1.75-10.1-1.75-2-.94-2.4.24c-.72,2.13,9.9,4.28,10.91,4.46.71.13.41,1.26-.34,1.09s-9.71-3-10.47-.83c-.57,1.65,8.72,1.85,10.26,3.49s-7-.88-7.53.72c-.18.6,3.39.88,8.52,1.6a131.92,131.92,0,0,0,15.85.56c11.9.65,53.94,1.52,62.91.89C567.62,240,563.69,226.46,563.29,223.14Z"/><path class="cls-16" d="M438.32,173s-5.77-5.89-6.88-6.12-11.93-5.66-11.93-5.66a1.85,1.85,0,0,0,.31,2.75c1.61,1.28,5.39,3.57,5.39,3.57l-2.68,5.22s2.57,8.55,3,8.38.9-1.68.9-1.68l-.8-2.7,5.24,4.37,2.27-.26Z"/><path class="cls-17" d="M433.88,170.16a24.29,24.29,0,0,1-3.64-1.77l0,0-2.85-.77.31-.21a3.63,3.63,0,0,0,.77,2.39,9.07,9.07,0,0,0,2.91,2.43l.19.1-.07.19a6.39,6.39,0,0,0-.12,4c.27,1,.59,1.48.54,1.51a3.23,3.23,0,0,1-.82-1.42,6.27,6.27,0,0,1-.05-4.24l.12.29a8.81,8.81,0,0,1-3.12-2.54,4,4,0,0,1-.84-2.75l0-.3.28.08,2.83.85h.05A27,27,0,0,1,433.88,170.16Z"/><path class="cls-16" d="M424.22,172.89a31.17,31.17,0,0,0,2.24,6.56,5,5,0,0,0,1-2.09"/><path class="cls-17" d="M427.48,177.36a3.21,3.21,0,0,1-.85,2.23l-.21.28-.16-.33a22.82,22.82,0,0,1-.95-2.11,12.65,12.65,0,0,1-1.09-4.54c.14,0,.66,2,1.58,4.35.3.78.6,1.5.86,2.11l-.37,0A14.5,14.5,0,0,0,427.48,177.36Z"/><path class="cls-17" d="M427.6,169a8.36,8.36,0,0,1,1,2.22,10.54,10.54,0,0,1,.62,2.61,6.64,6.64,0,0,1-.46,3.29,5.26,5.26,0,0,1-.75,1.23l-.26.3-.17-.36a25.43,25.43,0,0,1-1.68-4.69,6.29,6.29,0,0,1-.33-2c.14,0,.77,2.91,2.47,6.44l-.43-.05a4.56,4.56,0,0,0,.67-1.11,8.27,8.27,0,0,0,0-5.58A18.22,18.22,0,0,1,427.6,169Z"/><polygon class="cls-16" points="438.32 172.99 479.31 200.73 467.35 215.68 433.17 180.85 438.32 172.99"/><path class="cls-9" d="M481.86,391.75l-.21-10.08,18.88-.51L501,395.9l-1.16.11c-5.2.43-26.47,1.81-30,.85C465.92,395.79,481.86,391.75,481.86,391.75Z"/><g class="cls-11"><path class="cls-12" d="M494.14,395.94a6.48,6.48,0,0,1,2.3-4.09,6.29,6.29,0,0,1,4.37-1.49l.15,5.27Z"/></g><g class="cls-18"><path class="cls-12" d="M474.08,394s-5.57,1.77-4.85,2.68,22.27.31,31.75-.78l0-.42-25.12.91S475.18,394,474.08,394Z"/></g><path class="cls-5" d="M501.24,395.46a1.68,1.68,0,0,1-.33,0l-.93.09-3.42.24c-2.9.18-6.9.38-11.32.51s-8.43.15-11.33.13l-3.43-.05-.94,0-.32,0a1.14,1.14,0,0,1,.32,0l.94,0,3.43,0c2.9,0,6.9-.08,11.32-.2s8.42-.3,11.32-.44l3.43-.17.93,0Z"/><path class="cls-5" d="M475.83,396.68a5,5,0,0,0-1.89-2.9,2.51,2.51,0,0,1,1.4,1.15A2.56,2.56,0,0,1,475.83,396.68Z"/><path class="cls-5" d="M481.32,393.7c-.05,0-.33-.28-.62-.71s-.47-.8-.42-.83.33.28.61.71S481.37,393.67,481.32,393.7Z"/><path class="cls-5" d="M482.83,392.85c-.05,0-.35-.14-.68-.42s-.57-.56-.53-.6.34.14.68.42S482.87,392.8,482.83,392.85Z"/><path class="cls-5" d="M483.74,391c0,.07-.43.13-1,.16a2.27,2.27,0,0,1-1-.08,2.3,2.3,0,0,1,1-.15A2.33,2.33,0,0,1,483.74,391Z"/><path class="cls-5" d="M484,389.78a2,2,0,0,1-1.09.35,1.89,1.89,0,0,1-1.14-.12,6.07,6.07,0,0,1,1.12-.11A6.16,6.16,0,0,1,484,389.78Z"/><path class="cls-5" d="M480.63,392.07a3.24,3.24,0,0,1-1.21,0,7.52,7.52,0,0,1-1.3-.25,3.14,3.14,0,0,1-.74-.29.64.64,0,0,1-.32-.36.48.48,0,0,1,.18-.49,2.2,2.2,0,0,1,2.76.57,2.06,2.06,0,0,1,.42.8.65.65,0,0,1,0,.33,3.11,3.11,0,0,0-.58-1,2.17,2.17,0,0,0-1.05-.65,1.92,1.92,0,0,0-1.45.14c-.18.15-.1.37.11.49a3.7,3.7,0,0,0,.69.28,10.41,10.41,0,0,0,1.26.29C480.17,392.05,480.63,392,480.63,392.07Z"/><path class="cls-5" d="M480.32,392.14a1.27,1.27,0,0,1-.16-.84,1.87,1.87,0,0,1,.31-.89,1.19,1.19,0,0,1,1-.65.49.49,0,0,1,.39.55,1.49,1.49,0,0,1-.19.55,3.66,3.66,0,0,1-.56.75,1.76,1.76,0,0,1-.68.51s.24-.23.56-.62a4.13,4.13,0,0,0,.49-.74c.16-.26.26-.72,0-.77s-.61.29-.79.54a2,2,0,0,0-.32.79A4.49,4.49,0,0,0,480.32,392.14Z"/><path class="cls-5" d="M500.71,390.31s-.54,0-1.39.09a6,6,0,0,0-3,1.33,6.15,6.15,0,0,0-1.83,2.74c-.26.82-.27,1.36-.32,1.36a1.43,1.43,0,0,1,0-.38,4.63,4.63,0,0,1,.18-1,5.81,5.81,0,0,1,1.83-2.86,5.88,5.88,0,0,1,3.14-1.33,5.07,5.07,0,0,1,1,0C500.58,390.26,500.71,390.29,500.71,390.31Z"/><path class="cls-5" d="M498.54,382.51a65.39,65.39,0,0,1,.31,7.75,35,35,0,0,1-.27-3.87A32.54,32.54,0,0,1,498.54,382.51Z"/><path class="cls-5" d="M491.71,394.16a10.36,10.36,0,0,1-2.75.35,10.69,10.69,0,0,1-2.76-.14c0-.07,1.24,0,2.76-.09S491.7,394.1,491.71,394.16Z"/><path class="cls-5" d="M495.41,394.06s-.09.26-.21.55-.18.53-.25.53-.1-.29,0-.62S495.37,394,495.41,394.06Z"/><path class="cls-5" d="M496.76,392.28c0,.05-.07.25-.26.45s-.38.33-.43.29.07-.24.26-.45S496.71,392.24,496.76,392.28Z"/><path class="cls-5" d="M498.73,391.43c0,.07-.26.07-.54.18s-.47.26-.52.22.1-.31.44-.44S498.75,391.38,498.73,391.43Z"/><path class="cls-5" d="M500.14,391c0,.06-.08.16-.24.23s-.3.07-.32,0,.08-.16.23-.23S500.11,391,500.14,391Z"/><path class="cls-9" d="M436.29,337.84l4.37-9.08,17.06,8.09-6.26,13.35-1.09-.44c-4.83-2-24.42-10.35-27.12-12.8C420.25,334.23,436.29,337.84,436.29,337.84Z"/><g class="cls-11"><path class="cls-12" d="M445.34,347.13a6.52,6.52,0,0,1,3.9-2.6,6.32,6.32,0,0,1,4.57.65L451.56,350Z"/></g><g class="cls-18"><path class="cls-12" d="M428.33,336.33s-5.78-.94-5.54.2,19.72,10.35,28.67,13.67l.15-.4L428.8,339.24S429.3,336.84,428.33,336.33Z"/></g><path class="cls-5" d="M451.89,349.92a1.32,1.32,0,0,1-.31-.11l-.87-.35-3.16-1.33c-2.67-1.14-6.33-2.78-10.33-4.67s-7.58-3.68-10.16-5l-3-1.59-.82-.45-.28-.17.3.13.84.41,3.07,1.53c2.6,1.29,6.19,3.06,10.19,4.95S445,346.8,447.61,348l3.14,1.4.85.39Z"/><path class="cls-5" d="M428.68,339.51a8.3,8.3,0,0,0,.12-1.75,7.47,7.47,0,0,0-.5-1.69,2.5,2.5,0,0,1,.73,1.66A2.62,2.62,0,0,1,428.68,339.51Z"/><path class="cls-5" d="M434.92,339.34a2.12,2.12,0,0,1-.23-.91,2.09,2.09,0,0,1,0-.94,2,2,0,0,1,.23.91A2.09,2.09,0,0,1,434.92,339.34Z"/><path class="cls-5" d="M436.65,339.26c-.06,0-.24-.28-.41-.68s-.26-.75-.2-.78.24.28.41.69S436.71,339.24,436.65,339.26Z"/><path class="cls-5" d="M438.28,338.06a2.22,2.22,0,0,1-.94-.3c-.5-.23-.88-.46-.85-.52s.45.08.95.31S438.31,338,438.28,338.06Z"/><path class="cls-5" d="M439.12,337.07a1.93,1.93,0,0,1-1.13-.18,2,2,0,0,1-1-.62,5.31,5.31,0,0,1,1,.41A5.75,5.75,0,0,1,439.12,337.07Z"/><path class="cls-5" d="M435.05,337.58a3.76,3.76,0,0,1-1.1-.53,6.73,6.73,0,0,1-1-.81,3.45,3.45,0,0,1-.54-.59.66.66,0,0,1-.11-.47.47.47,0,0,1,.37-.36,2.22,2.22,0,0,1,2.21,1.76,2.31,2.31,0,0,1,0,.91.75.75,0,0,1-.11.31,3.29,3.29,0,0,0-.06-1.18,2.2,2.2,0,0,0-.64-1.05,1.89,1.89,0,0,0-1.35-.53c-.24,0-.27.29-.13.49a4.37,4.37,0,0,0,.49.56,9.27,9.27,0,0,0,1,.83C434.64,337.34,435.06,337.54,435.05,337.58Z"/><path class="cls-5" d="M434.74,337.5a1.17,1.17,0,0,1,.23-.83,2,2,0,0,1,.68-.65,1.21,1.21,0,0,1,1.18-.13.48.48,0,0,1,.09.66,1.33,1.33,0,0,1-.41.41,3.78,3.78,0,0,1-.84.41,1.6,1.6,0,0,1-.83.15s.31-.09.77-.3a4,4,0,0,0,.78-.44c.26-.16.56-.52.3-.7a1.06,1.06,0,0,0-.94.12,2,2,0,0,0-.65.56A4,4,0,0,0,434.74,337.5Z"/><path class="cls-5" d="M453.75,345.09s-.47-.28-1.28-.56a6,6,0,0,0-6.16,1.45c-.6.61-.86,1.09-.9,1.07a1.12,1.12,0,0,1,.16-.35,5.65,5.65,0,0,1,.63-.83,5.72,5.72,0,0,1,6.32-1.49,4.92,4.92,0,0,1,.93.47C453.65,345,453.76,345.07,453.75,345.09Z"/><path class="cls-5" d="M455.34,337.15a32.72,32.72,0,0,1-1.51,3.57,31.27,31.27,0,0,1-1.72,3.48,33.69,33.69,0,0,1,1.51-3.57A31.27,31.27,0,0,1,455.34,337.15Z"/><path class="cls-5" d="M444,344.45a10.2,10.2,0,0,1-2.61-.93,10.84,10.84,0,0,1-2.4-1.38c0-.06,1.12.54,2.5,1.17S444,344.39,444,344.45Z"/><path class="cls-5" d="M447.33,346c0,.06-.21.19-.44.39s-.41.4-.46.37,0-.31.31-.54S447.31,346,447.33,346Z"/><path class="cls-5" d="M449.33,345.06c0,.06-.17.18-.44.28s-.49.12-.51.06.17-.18.44-.28S449.31,345,449.33,345.06Z"/><path class="cls-5" d="M451.47,345.19c0,.06-.26-.05-.56-.08s-.53,0-.56-.05.23-.22.59-.18S451.51,345.15,451.47,345.19Z"/><path class="cls-5" d="M452.91,345.46c0,.07-.14.11-.31.1s-.3-.08-.29-.14.14-.1.31-.09S452.92,345.4,452.91,345.46Z"/><path class="cls-5" d="M561,204.9a102.61,102.61,0,0,1-10.93.33,104.15,104.15,0,0,1-10.94-.25,102.88,102.88,0,0,1,10.94-.33A104,104,0,0,1,561,204.9Z"/><path class="cls-9" d="M560.73,206l-4-20.13c-3-16.47-26.05-17.61-26.05-17.61l-18.12-.29s-13.44-1.81-21.73,7.54c-8.58,9.68-19.12,21.11-19.12,21.11l8.05,20.25,19.07-15.73a19.45,19.45,0,0,0-2.56,9.15c0,5.37,5.6,7.84,5.6,7.84l1.71,16.33-5.69,26.37,59.18-2.37a58.74,58.74,0,0,0-8.72-24.87l1.1-27.59Z"/><path class="cls-5" d="M496.7,206.53a16,16,0,0,1,.71-2.72c.25-.83.56-1.82.94-2.91.19-.54.4-1.11.64-1.69.13-.32.3-.59.38-.85a3,3,0,0,0,.11-.87,13.53,13.53,0,0,0-.29-1.86c-.11-.6-.22-1.19-.32-1.76-.19-1.08-.37-2.08-.53-3a13.16,13.16,0,0,1-.33-2.8,14.26,14.26,0,0,1,.74,2.72c.2.91.41,1.91.64,3,.12.57.24,1.16.37,1.77a12.28,12.28,0,0,1,.3,1.95,3.23,3.23,0,0,1-.14,1.06,9.73,9.73,0,0,1-.41.89q-.36.85-.66,1.65c-.37,1-.72,2-1.05,2.86A11.93,11.93,0,0,1,496.7,206.53Z"/><g class="cls-10"><path d="M536,188.85c.73,11.23,1.17,21.57,1.39,32.81a8.46,8.46,0,0,0,4.22-1.32C542.21,215.54,538.58,200.94,536,188.85Z"/></g><path class="cls-6" d="M557.24,255.77s-77.39-16.21-84.88-12.66-42.05,89-42.05,89l27.82,12,29.94-72.57s54.19,19.79,63.65,17.82S557.24,255.77,557.24,255.77Z"/><path class="cls-6" d="M522.65,260.33c-1.18.39-45.95,18.79-49.1,24.71s4.6,104.14,4.6,104.14h25.46L502,301.88l49.69-12.59Z"/><path class="cls-5" d="M552,289.49a3.3,3.3,0,0,1-.73-.09l-2.09-.37c-1.8-.33-4.41-.85-7.62-1.53-6.43-1.36-15.28-3.41-24.92-6.17-4.81-1.4-9.37-2.85-13.48-4.26s-7.76-2.82-10.78-4.12c-1.53-.61-2.88-1.22-4.07-1.77s-2.21-1-3-1.42l-1.89-.95a3,3,0,0,1-.64-.37,3.1,3.1,0,0,1,.69.26l1.94.86c.83.38,1.86.83,3.06,1.33s2.56,1.09,4.09,1.68c3,1.24,6.72,2.56,10.81,4s8.66,2.82,13.47,4.21c9.62,2.76,18.44,4.87,24.84,6.33l7.58,1.71,2.06.47A3.75,3.75,0,0,1,552,289.49Z"/><path class="cls-5" d="M473.56,307.6a7.5,7.5,0,0,1-.24-1.47c-.11-1.06-.25-2.41-.42-4s-.35-3.76-.56-6a27.3,27.3,0,0,1,0-7.4,11.57,11.57,0,0,1,3.72-6.4,19.58,19.58,0,0,1,5.09-3.28c1.57-.72,2.88-1.17,3.78-1.49a6.41,6.41,0,0,1,1.43-.41c0,.1-2,.8-5,2.27a20.21,20.21,0,0,0-4.91,3.3,11.2,11.2,0,0,0-3.5,6.12,28,28,0,0,0,0,7.25c.16,2.22.3,4.24.43,6s.18,3,.24,4A7.73,7.73,0,0,1,473.56,307.6Z"/><path class="cls-5" d="M495.89,299.16a9.86,9.86,0,0,1,3.14,1.06,9.5,9.5,0,0,1,2.89,1.6,9.93,9.93,0,0,1-3.13-1.06A9.55,9.55,0,0,1,495.89,299.16Z"/><path class="cls-5" d="M498.14,296.48a34.75,34.75,0,0,1,2,2.87c1.15,1.54,2.32,2.61,2.21,2.74a9.14,9.14,0,0,1-4.24-5.61Z"/><path class="cls-5" d="M507.91,300.51s-.07.21-.39.4a3,3,0,0,1-1.47.35,17.14,17.14,0,0,0-2.12.05,1.49,1.49,0,0,0-1.27,1.62,41.47,41.47,0,0,1-.31,6.8,38.07,38.07,0,0,1-.27-6.83,2.45,2.45,0,0,1,.48-1.45,2,2,0,0,1,1.28-.67,12.53,12.53,0,0,1,2.21.07A3.56,3.56,0,0,0,507.91,300.51Z"/><polygon class="cls-19" points="501.81 242.6 554.56 246.84 552.31 240.94 502.32 240.22 501.81 242.6"/><path class="cls-5" d="M503.17,120.76c-3.87,1.25-8.36,3.82-6.14,15.93,1,5.32,2.23,10.76,5.8,14.83a2.53,2.53,0,0,0,2.07,1.14,2.62,2.62,0,0,0,1.43-1c4.06-4.42,7.52-9.65,8.61-15.55s-.54-12.56-5.19-16.36"/><path class="cls-16" d="M510.59,173.34c-.13-5.57-.37-11.54-.37-11.54s-8.47-1.07-8.84-9.72-.45-23.81-.45-23.81L517.48,116l11.62,16,.29,41.05a9.4,9.4,0,0,1-9.4,9.46h0A9.4,9.4,0,0,1,510.59,173.34Z"/><path class="cls-17" d="M510.22,161.8a20.67,20.67,0,0,0,11.23-3.68s-2.64,6.3-11.08,5.8Z"/><path class="cls-17" d="M511,151.72a1,1,0,0,1,1-1.44,1.6,1.6,0,0,1,1.62-1.41,1.81,1.81,0,0,1,1.64,1.47,2.1,2.1,0,0,1-.92,2,2.5,2.5,0,0,1-2.29.17,1.82,1.82,0,0,1-1.15-1.36"/><path class="cls-5" d="M503,139.12a1.18,1.18,0,0,0,1.14,1.2,1.13,1.13,0,0,0,1.23-1.07,1.2,1.2,0,0,0-1.15-1.2A1.14,1.14,0,0,0,503,139.12Z"/><path class="cls-5" d="M502.73,137.79c.15.15,1-.51,2.32-.51s2.22.64,2.36.49-.08-.35-.49-.65a3.34,3.34,0,0,0-1.89-.58,3.19,3.19,0,0,0-1.85.6C502.79,137.44,502.66,137.72,502.73,137.79Z"/><path class="cls-5" d="M515.5,139.42a1.19,1.19,0,0,0,1.15,1.2,1.13,1.13,0,0,0,1.22-1.07,1.2,1.2,0,0,0-1.14-1.2A1.14,1.14,0,0,0,515.5,139.42Z"/><path class="cls-5" d="M515.29,138c.15.15,1.05-.51,2.32-.51s2.22.64,2.36.49-.09-.35-.49-.65a3.29,3.29,0,0,0-1.89-.58,3.12,3.12,0,0,0-1.85.6C515.35,137.68,515.22,138,515.29,138Z"/><path class="cls-5" d="M510.65,147.5a8.45,8.45,0,0,0-2.07-.37c-.33,0-.64-.1-.69-.32a1.69,1.69,0,0,1,.21-1l1-2.48a43.52,43.52,0,0,0,2.17-6.5,41.66,41.66,0,0,0-2.69,6.31c-.32.87-.63,1.7-.92,2.5a1.83,1.83,0,0,0-.17,1.28.82.82,0,0,0,.53.47,2,2,0,0,0,.56.08A7.76,7.76,0,0,0,510.65,147.5Z"/><path class="cls-5" d="M514.41,148.39c-.21,0-.21,1.37-1.4,2.36s-2.66.83-2.67,1,.33.27,1,.29a3.49,3.49,0,0,0,2.24-.78,3,3,0,0,0,1.08-2C514.66,148.72,514.51,148.38,514.41,148.39Z"/><path class="cls-5" d="M514.71,135.18c.13.34,1.41.18,2.9.36s2.72.59,2.91.28c.09-.15-.12-.48-.61-.82a4.88,4.88,0,0,0-2.15-.75,4.72,4.72,0,0,0-2.27.27C514.94,134.74,514.66,135,514.71,135.18Z"/><path class="cls-5" d="M503.2,134.09c.23.29,1.11,0,2.16,0s2,.19,2.16-.11,0-.44-.44-.71a3,3,0,0,0-1.76-.48,3,3,0,0,0-1.72.58C503.22,133.65,503.1,134,503.2,134.09Z"/><path class="cls-5" d="M521.42,134.48a6.64,6.64,0,0,0,4.21-1.51c.76,2.05.75,4.31,1.45,6.37s2.35,10.58,4.51,10.25c2-.29,3.38-8.88,3.89-10.81,1.39-5.36-.36-11.25-3.92-15.49-4.22-5-11.26-9.31-17.81-8.84a14.68,14.68,0,0,0-8.11,2.85s-3.53,2.73-3.24,6.2c.41,4.85,7.47,8,12.33,7.82l.69.67A8.46,8.46,0,0,0,521.42,134.48Z"/><path class="cls-5" d="M500.88,132.89a7.15,7.15,0,0,0,2.41-3.87,21.62,21.62,0,0,0,.57-4.61c0-.45-.05-1-.48-1.14s-.77.31-1,.7a14.92,14.92,0,0,0-1.53,9.37c.09-.09-.29.24-.2.15"/><path class="cls-5" d="M532.2,168.79a10.23,10.23,0,0,0,3.38-8.83c-.31-2.49-1.54-4.86-1.42-7.36.09-2,1-3.8,1.65-5.67a19.55,19.55,0,0,0,.76-9.54c-.43-2.52-1.46-5.09-3.53-6.58s-5.35-1.45-6.88.59l-.74.23a20.75,20.75,0,0,0,2.64,22.11,11.33,11.33,0,0,0,.19,15.21,12.42,12.42,0,0,0-1.57,12.42,1.19,1.19,0,0,1,.08.16,10.94,10.94,0,0,0-.37,14.6,10.89,10.89,0,0,0-3.69,6.33,5.89,5.89,0,0,0,3.06,6.11,7,7,0,0,0,1.89,11.81,22.07,22.07,0,0,1,3.56-2.91,3.61,3.61,0,0,1-1.63-1.58,4.56,4.56,0,0,0,2.77.87l-1.2-5.44a7.08,7.08,0,0,0-1-2.8l-.14-.16a6.52,6.52,0,0,0,3.11-3.37c1.07-2.79.33-6-1.11-8.63,1.52-3.13,3-6.42,3-9.9a10.56,10.56,0,0,0-1-4.59,13,13,0,0,0,2.15-7A6.7,6.7,0,0,0,532.2,168.79Z"/><path class="cls-6" d="M531.1,196.08a2.88,2.88,0,0,1-2.32.86,2.93,2.93,0,0,1-2.35-.79c.07-.14,1.06.3,2.34.27S531,195.94,531.1,196.08Z"/><path class="cls-6" d="M533.34,183.69a20.29,20.29,0,0,0-5,4.29,20.55,20.55,0,0,0-2.88,5.89,5,5,0,0,1,.3-2,13,13,0,0,1,5.73-7.45A4.82,4.82,0,0,1,533.34,183.69Z"/><path class="cls-6" d="M532.35,182a3.65,3.65,0,0,1-4.57,0c.07-.14,1,.29,2.29.28S532.28,181.85,532.35,182Z"/><path class="cls-6" d="M533.91,180.3a17.16,17.16,0,0,0-1.38-5.35,16.88,16.88,0,0,0-3.43-4.33,3.71,3.71,0,0,1,1.42.89,10.53,10.53,0,0,1,2.48,3.21,10.19,10.19,0,0,1,1,3.91A3.78,3.78,0,0,1,533.91,180.3Z"/><path class="cls-6" d="M532.61,167.39c.12.07-.41.9-1.49,1.32s-2,.18-2,0,.87-.15,1.81-.53S532.5,167.29,532.61,167.39Z"/><path class="cls-6" d="M529.52,168a3.54,3.54,0,0,1-1.1-1.84,8,8,0,0,1,.23-5.17,13.85,13.85,0,0,1,2.82-4.34,7.4,7.4,0,0,1,1.57-1.44,10.68,10.68,0,0,1-1.29,1.68,16.27,16.27,0,0,0-2.61,4.29,8.36,8.36,0,0,0-.37,4.87A17.35,17.35,0,0,0,529.52,168Z"/><path class="cls-6" d="M533.11,154a3.17,3.17,0,0,1-2.48.25c-1.4-.28-2.28-1.1-2.18-1.2s1,.44,2.29.69S533.08,153.82,533.11,154Z"/><path class="cls-6" d="M537.11,140.22a5.64,5.64,0,0,1-2.3.16,11.14,11.14,0,0,1-9-5.94,5.59,5.59,0,0,1-.76-2.18c.09,0,.36.81,1.09,2a12,12,0,0,0,8.74,5.76C536.23,140.21,537.1,140.13,537.11,140.22Z"/><path class="cls-6" d="M536.34,145.36s-.19.23-.67.43a4.09,4.09,0,0,1-2.15.2,10.37,10.37,0,0,1-5.88-3.82,13.09,13.09,0,0,1-2.84-6.43,10.65,10.65,0,0,1-.1-2.14,2.15,2.15,0,0,1,.12-.78c.1,0,0,1.12.34,2.86a14,14,0,0,0,2.88,6.16,10.64,10.64,0,0,0,5.54,3.78A4.64,4.64,0,0,0,536.34,145.36Z"/><path class="cls-6" d="M534.49,129.53a4.14,4.14,0,0,1-1,.47,10.79,10.79,0,0,1-2.93.67,12.19,12.19,0,0,1-4.53-.44,11.86,11.86,0,0,1-4.95-2.81l.27.06a13.24,13.24,0,0,1-3.53.69,13.38,13.38,0,0,1-6.81-1.4,13.15,13.15,0,0,1-4.37-3.64,12.49,12.49,0,0,1-1.86-3.34,9.07,9.07,0,0,1-.31-1,1.52,1.52,0,0,1-.06-.36A17.34,17.34,0,0,0,507,122.9a12.89,12.89,0,0,0,10.86,4.75,12.9,12.9,0,0,0,3.39-.65l.15,0,.11.1a11.6,11.6,0,0,0,4.72,2.75,12.45,12.45,0,0,0,4.37.54A17.9,17.9,0,0,0,534.49,129.53Z"/><path class="cls-6" d="M530.63,122.56a3.68,3.68,0,0,1-1,.17c-.67.08-1.64.17-2.84.28l-4.21.34a27.34,27.34,0,0,1-5.22.05,17.7,17.7,0,0,1-8.74-3.53,15.26,15.26,0,0,1-2.11-2,4.36,4.36,0,0,1-.64-.83c.08-.07,1,1.1,3,2.49a18.47,18.47,0,0,0,8.58,3.3,30.12,30.12,0,0,0,5.12,0l4.23-.23c1.2-.06,2.17-.1,2.85-.11A4.13,4.13,0,0,1,530.63,122.56Z"/><path class="cls-6" d="M531.08,207.37a3.24,3.24,0,0,1-2.53,1.09,3.17,3.17,0,0,1-2.64-.78,18.15,18.15,0,0,0,2.61.26A20.34,20.34,0,0,0,531.08,207.37Z"/><path class="cls-6" d="M529.07,208.9a10.65,10.65,0,0,1,.13-1.57,10.17,10.17,0,0,0-2.11-7c-.58-.76-1-1.16-1-1.23s.58.26,1.27,1a8.92,8.92,0,0,1,1.91,3.38,8.77,8.77,0,0,1,.28,3.87A3.45,3.45,0,0,1,529.07,208.9Z"/><path class="cls-16" d="M563.29,223.14c-1.17-9.67-2.73-17.91-2.73-17.91H539.61s2.6,12.26,2,15.11c-.51,2.47-41.11,4.11-51.69,4.28-.63-.47-1.55.32-2.36-.39a8.25,8.25,0,0,1-1.8-2.22,12.94,12.94,0,0,1-1.45-3.28,1.08,1.08,0,0,0-2-.46c-.42.91.05,3.93,2.07,6.84s-3.26,1.4-5.2.88-8-1.82-8.59-1.34c-.92.71-.35,1.85,1.59,2.32s7.66,2.29,7.35,3.33-10.1-1.75-10.1-1.75-2-.94-2.4.24c-.72,2.13,9.9,4.28,10.91,4.46.71.13.41,1.26-.34,1.09s-9.71-3-10.47-.83c-.57,1.65,8.72,1.85,10.26,3.49s-7-.88-7.53.72c-.18.6,3.39.88,8.52,1.6a131.92,131.92,0,0,0,15.85.56c11.9.65,53.94,1.52,62.91.89C567.62,240,563.69,226.46,563.29,223.14Z"/><polygon class="cls-4" points="424.31 184.76 441.56 235.15 519.63 235.15 519.06 232.55 487.49 231.58 472.94 184.73 424.31 184.76"/><path class="cls-12" d="M458.91,208.43c.52,2.06-.37,4.08-2,4.51s-3.33-.89-3.85-3,.37-4.08,2-4.51S458.4,206.36,458.91,208.43Z"/><polygon class="cls-5" points="117.32 235.14 117.32 241.67 318.62 241.67 318.62 388.91 364.12 388.91 364.12 241.67 564.95 241.67 564.95 235.14 117.32 235.14"/><polygon class="cls-20" points="311.08 392.47 310.08 342.04 329.4 338.84 326.36 392.25 311.08 392.47"/><path class="cls-9" d="M327.18,392.7l-.05-1.78-16.77.42.11,5.87,1,0c4.61.15,23.46.45,26.51-.56C341.44,395.57,327.18,392.7,327.18,392.7Z"/><g class="cls-18"><path class="cls-12" d="M316.52,396.94a5.76,5.76,0,0,0-2.21-3.51,5.62,5.62,0,0,0-3.93-1.13l.1,4.67Z"/></g><g class="cls-18"><path class="cls-12" d="M334.15,394.35s5,1.32,4.4,2.16-19.66,1.25-28.08.7l0-.38,22.23-.3S333.18,394.41,334.15,394.35Z"/></g><path class="cls-5" d="M310.23,396.83l.29,0,.82,0,3,.07c2.56,0,6.11,0,10-.05s7.45-.23,10-.38l3-.19.83-.07.28,0h-.29l-.82,0-3,.13c-2.57.11-6.11.24-10,.32s-7.45.1-10,.11h-3.86Z"/><path class="cls-5" d="M332.72,396.79a7.83,7.83,0,0,1,.54-1.46,6.41,6.41,0,0,1,1-1.18,2.29,2.29,0,0,0-1.19,1.08A2.25,2.25,0,0,0,332.72,396.79Z"/><path class="cls-5" d="M327.75,394.4s.27-.26.51-.65a2,2,0,0,0,.34-.76c-.05,0-.28.27-.52.66S327.7,394.37,327.75,394.4Z"/><path class="cls-5" d="M326.38,393.72s.3-.14.58-.41.48-.51.44-.55-.3.14-.58.41S326.34,393.68,326.38,393.72Z"/><path class="cls-5" d="M325.49,392.16a3.84,3.84,0,0,0,1.74,0,3.84,3.84,0,0,0-1.74,0Z"/><path class="cls-5" d="M325.17,391.06a2.44,2.44,0,0,0,2,.1,6.65,6.65,0,0,0-1,0A4.75,4.75,0,0,0,325.17,391.06Z"/><path class="cls-5" d="M328.28,392.93a2.72,2.72,0,0,0,1.07,0,6,6,0,0,0,1.14-.27,3,3,0,0,0,.65-.29.54.54,0,0,0,.25-.33.43.43,0,0,0-.17-.43,2,2,0,0,0-2.42.63,1.92,1.92,0,0,0-.33.72c0,.19,0,.29,0,.29a2.78,2.78,0,0,1,.47-.92,1.86,1.86,0,0,1,.9-.62,1.68,1.68,0,0,1,1.28.06c.17.12.11.32-.08.44a3.15,3.15,0,0,1-.59.27,7,7,0,0,1-1.1.31C328.69,392.89,328.28,392.9,328.28,392.93Z"/><path class="cls-5" d="M328.56,393a1.08,1.08,0,0,0,.11-.75,2,2,0,0,0-.31-.77,1.08,1.08,0,0,0-.91-.53.43.43,0,0,0-.32.5,1.15,1.15,0,0,0,.19.48,3.59,3.59,0,0,0,.52.64,1.61,1.61,0,0,0,.63.42s-.22-.19-.52-.52a3.94,3.94,0,0,1-.47-.64c-.15-.22-.26-.63,0-.68s.55.23.72.44a1.68,1.68,0,0,1,.31.69A3.83,3.83,0,0,1,328.56,393Z"/><path class="cls-5" d="M310.47,392.25s.48-.05,1.23,0a5.43,5.43,0,0,1,2.72,1.05,5.31,5.31,0,0,1,1.73,2.34c.27.71.31,1.19.34,1.18s0-.12,0-.33a5,5,0,0,0-.2-.9,5.08,5.08,0,0,0-4.58-3.48,4,4,0,0,0-.91,0A1.3,1.3,0,0,0,310.47,392.25Z"/><path class="cls-5" d="M318.59,395.27a9.71,9.71,0,0,0,2.44.18,8.78,8.78,0,0,0,2.43-.25c0-.05-1.09,0-2.43.05S318.59,395.21,318.59,395.27Z"/><path class="cls-5" d="M315.31,395.33s.1.23.22.48.18.47.24.46.08-.26-.06-.55S315.35,395.29,315.31,395.33Z"/><path class="cls-5" d="M314.05,393.82s.07.22.25.39.35.28.39.23-.08-.21-.25-.38S314.09,393.78,314.05,393.82Z"/><path class="cls-5" d="M312.27,393.16c0,.06.23,0,.48.13s.43.21.47.17-.1-.26-.41-.36S312.25,393.11,312.27,393.16Z"/><path class="cls-5" d="M311,392.86c0,.05.07.14.21.19s.27.05.29,0-.08-.13-.22-.18S311,392.81,311,392.86Z"/><polygon class="cls-15" points="332.34 392.15 331.02 341.02 350.43 338.84 347.91 392.03 332.34 392.15"/><path class="cls-9" d="M280.57,248.78c18.92.12,37.88.25,56.72,2,7.52.68,15.66,1.93,20.89,7.37,4.89,5.1,6,12.63,6.94,19.64l8.25,64.13a295.63,295.63,0,0,1-78.54-2.49q.29-23.83.55-47.67l.42-7.46-29.15-1.9Z"/><path class="cls-2" d="M344.92,273.61A24.11,24.11,0,0,1,346.8,269a24.54,24.54,0,0,1,2.35-4.42,24.11,24.11,0,0,1-1.88,4.64A24.54,24.54,0,0,1,344.92,273.61Z"/><path class="cls-2" d="M354.33,295.06a17.48,17.48,0,0,1-2.84-3.26,18.3,18.3,0,0,1-2.43-3.59,17.76,17.76,0,0,1,2.84,3.27A18.41,18.41,0,0,1,354.33,295.06Z"/><path class="cls-2" d="M351,307.7a15.86,15.86,0,0,1-2.7,2.9,15.61,15.61,0,0,1-3.05,2.53,15.1,15.1,0,0,1,2.69-2.91A14.8,14.8,0,0,1,351,307.7Z"/><path class="cls-2" d="M365,320.41a35.8,35.8,0,0,1-2.08-8.33,18.78,18.78,0,0,1,1.29,4.1A17.69,17.69,0,0,1,365,320.41Z"/><path class="cls-2" d="M353.22,333.88a14,14,0,0,1-1.49-3.42,13.84,13.84,0,0,1-1-3.58,26.12,26.12,0,0,1,2.5,7Z"/><path class="cls-2" d="M338.31,299.15a18.34,18.34,0,0,1-.75,4.34,19.2,19.2,0,0,1-1.26,4.21,18.93,18.93,0,0,1,.75-4.33A19.18,19.18,0,0,1,338.31,299.15Z"/><rect class="cls-5" x="319.26" y="229.34" width="77.01" height="3.75" transform="translate(715.53 462.44) rotate(180)"/><polygon class="cls-5" points="408.2 233.09 422.65 178.96 362.52 178.96 349.44 233.09 408.2 233.09"/><polygon class="cls-3" points="353.04 228.99 406.76 228.99 419.26 181.46 365.27 181.46 353.04 228.99"/><polygon class="cls-4" points="366.6 190.66 363.27 204.13 398.89 204.13 402.69 190.66 366.6 190.66"/><path class="cls-6" d="M395.18,188.89c0,.14-6.25.26-13.95.26s-14-.12-14-.26,6.25-.26,14-.26S395.18,188.75,395.18,188.89Z"/><path class="cls-5" d="M378.94,193.24a60.87,60.87,0,0,1-11.24,0,60.87,60.87,0,0,1,11.24,0Z"/><path class="cls-5" d="M388,193a25.89,25.89,0,0,1-7.32,0,25.89,25.89,0,0,1,7.32,0Z"/><path class="cls-6" d="M398.15,195.68c0,.15-6.89.26-15.39.26s-15.38-.11-15.38-.26,6.89-.26,15.38-.26S398.15,195.54,398.15,195.68Z"/><path class="cls-9" d="M376.72,197.91a48,48,0,0,1-10,0,48,48,0,0,1,10,0Z"/><path class="cls-6" d="M395.39,201.09c0,.15-6.39.26-14.27.26s-14.27-.11-14.27-.26,6.39-.26,14.27-.26S395.39,201,395.39,201.09Z"/><path class="cls-6" d="M374.38,208a58.62,58.62,0,0,1-11,0,58.62,58.62,0,0,1,11,0Z"/><path class="cls-5" d="M383.83,208a13.48,13.48,0,0,1-3.77.23,13.34,13.34,0,0,1-3.77-.29,27.47,27.47,0,0,1,7.54.06Z"/><path class="cls-5" d="M389.13,207.78c0,.14-.71.26-1.59.26s-1.59-.12-1.59-.26.71-.26,1.59-.26S389.13,207.63,389.13,207.78Z"/><path class="cls-9" d="M367.06,210.75c0,.14-.78.26-1.75.26s-1.75-.12-1.75-.26.78-.26,1.75-.26S367.06,210.61,367.06,210.75Z"/><path class="cls-5" d="M377.56,210.75a33.89,33.89,0,0,1-8.38,0,33.89,33.89,0,0,1,8.38,0Z"/><path class="cls-6" d="M402.61,210.43c0,.15-5,.26-11.2.26s-11.19-.11-11.19-.26,5-.26,11.19-.26S402.61,210.29,402.61,210.43Z"/><path class="cls-5" d="M366.53,213.61c0,.15-.81.27-1.8.27s-1.81-.12-1.81-.27.81-.26,1.81-.26S366.53,213.47,366.53,213.61Z"/><path class="cls-5" d="M372.05,213.51a4.87,4.87,0,0,1-2.18.26,4.81,4.81,0,0,1-2.17-.26,4.65,4.65,0,0,1,2.17-.26A4.71,4.71,0,0,1,372.05,213.51Z"/><path class="cls-6" d="M388.49,213.3a95.85,95.85,0,0,1-14.11,0,95.85,95.85,0,0,1,14.11,0Z"/><path class="cls-6" d="M379.79,218.28a68.78,68.78,0,0,1-8.54.26,68.78,68.78,0,0,1-8.54-.26,71.19,71.19,0,0,1,8.54-.26A71.19,71.19,0,0,1,379.79,218.28Z"/><path class="cls-9" d="M389.77,218.07a29,29,0,0,1-7.75,0,29,29,0,0,1,7.75,0Z"/><path class="cls-5" d="M404.57,218.07a79.39,79.39,0,0,1-12.84,0,79.39,79.39,0,0,1,12.84,0Z"/><path class="cls-5" d="M401.12,188.68c0,.14-.59.26-1.33.26s-1.32-.12-1.32-.26.59-.26,1.32-.26S401.12,188.54,401.12,188.68Z"/><path class="cls-9" d="M374.06,186.88a16.47,16.47,0,0,1-5.83,0,15.87,15.87,0,0,1,5.83,0Z"/><path class="cls-1" d="M418.37,184.88h-54l.91-3.42h54Z"/><circle class="cls-2" cx="367.54" cy="183.19" r="0.59"/><circle class="cls-2" cx="369.57" cy="183.19" r="0.59"/><circle class="cls-2" cx="371.61" cy="183.19" r="0.59"/><path class="cls-15" d="M307.58,204.81,315.29,228c2.08,6.27,7.56,7.34,14.17,7.34h42.89v-9.62l-39.18-5.59-9.34-23.86Z"/><path class="cls-15" d="M377.07,223.75l3.4-1.61s3.67-7.09,4.51-6.8,1.09,2.37-.38,5.62l4.52-1.29s9.8,4.53,9.37,5.14-1.24,2.06-3.37,1-4.94-2.37-4.94-2.37l-5.28,1.51,6.81.86,6.41,5.83s-2.11,1.58-3.92-.09l-16.64,3.57-5.21.29v-9.62Z"/><path class="cls-20" d="M394.2,231.51c-.07,0-.38-.45-1-1.1a5.08,5.08,0,0,0-1.21-.94,5,5,0,0,0-1.8-.47,25.29,25.29,0,0,1-5-.85,25.55,25.55,0,0,1,5.06.33,5,5,0,0,1,2,.58,4.6,4.6,0,0,1,1.25,1.11A2.89,2.89,0,0,1,394.2,231.51Z"/><path class="cls-20" d="M391.6,232.17c-.07,0-.12-.34-.58-.44s-1.24-.18-2-.26a15.93,15.93,0,0,1-2.92-.3,6,6,0,0,1,3-.22,9.18,9.18,0,0,1,2.1.43.82.82,0,0,1,.5.53C391.69,232.08,391.63,232.18,391.6,232.17Z"/><path class="cls-15" d="M276.49,119.38l-2.32,47.17,20.19,1.91L295.48,157s7.12,1.76,9.29-4.84c1.38-4.21,2.61-37.18,2.61-37.18Z"/><path class="cls-5" d="M309.12,120.5c.56,4.41-5.61,7-5.61,7l-1.08,10.44a20.35,20.35,0,0,0-2.9,0c.52-4.9-5.79-3.94-6.43-.6s3,5.36,3,5.36c-2.53,3.88-3.55,5.92-7.14,9.55-3.88,3.93-6,4.25-10,4.13l-4.41-.2s-1.57-3.77-2.72-12.68c-.56-4.28-3.9-9.89-2.95-16.86,2.7-19.79,21.67-17.7,21.67-17.7C300.46,109.16,307.83,110.25,309.12,120.5Z"/><path class="cls-5" d="M294.59,109.46c4.28.11,8.72.44,12.48,2.5s6.79,7.55,6,11.76c-.72.13-1.49.42-2.2.55-.29-.53-.66-2.49-.95-3,0,.84-.26,2.74-.25,3.58-1.26.35-2.24-.35-3.49,0a27.37,27.37,0,0,0-3.33-9.11"/><path class="cls-9" d="M309.16,208.63l3.89,12.65,23.23-5.44c-.75-2.34-7.19-17.12-13.82-33.66a28.44,28.44,0,0,0-21.7-17.49,123.35,123.35,0,0,0-20.05-2c-11.74.12-26.94,5.06-29.27,16.57-1.77,8.78,2.18,23.13,2.18,42l-2.78,39.56,58.32,2-5.91-34.73Z"/><g class="cls-10"><path d="M249.37,216.51c7.32,1.49,14.84,0,22.3-.46,4.52-.27,9.53-.76,13.11,2,2.84,2.21,4,5.91,4.8,9.41,1.77,7.58,3,23.26,3.84,37.89a27.55,27.55,0,0,0,15.22,23.07c2.34,1.16,8.48,1.2,8.52,2l-59.79,2.45Z"/></g><rect class="cls-6" x="284.67" y="295.44" width="7.31" height="87.63"/><path class="cls-6" d="M223.3,210.38v64.51a15.32,15.32,0,0,0,15.32,15.32h43V210.38a6.83,6.83,0,0,0-6.83-6.83H230.13A6.83,6.83,0,0,0,223.3,210.38Z"/><path class="cls-6" d="M339.4,295.44H234.78a11.36,11.36,0,0,1,11.36-11.35H328a11.36,11.36,0,0,1,11.36,11.35Z"/><path class="cls-5" d="M281.58,282.58a1.61,1.61,0,0,1,0,.5,5.76,5.76,0,0,1-.17,1.41,7.62,7.62,0,0,1-2.81,4.34,7.5,7.5,0,0,1-3.32,1.48,30.82,30.82,0,0,1-4.13.16l-9.4,0c-6.67,0-12.71,0-17.08-.06l-5.17-.08-1.41-.05a1.61,1.61,0,0,1-.49-.06,1.91,1.91,0,0,1,.49-.05l1.41-.05,5.17-.09c4.37-.06,10.41-.09,17.08-.1h9.4a33.22,33.22,0,0,0,4.06-.1,7.4,7.4,0,0,0,3.17-1.34,7.54,7.54,0,0,0,2.82-4.1C281.55,283.27,281.52,282.58,281.58,282.58Z"/><path class="cls-5" d="M294.75,295.67a38.24,38.24,0,0,1-6.42.27,38.34,38.34,0,0,1-6.42-.27,38.34,38.34,0,0,1,6.42-.27A38.24,38.24,0,0,1,294.75,295.67Z"/><path class="cls-6" d="M326.58,290.77a16.57,16.57,0,0,1-.65-3.07c-.35-2-.82-4.87-1.37-8.43s-.94-7.87-2.91-12.15a29.57,29.57,0,0,0-3.88-6.2,27.86,27.86,0,0,0-5.84-5.26,26,26,0,0,0-7.07-3.4,26.52,26.52,0,0,0-7.21-1.25c-4.73-.11-9-.09-12.65-.16s-6.53-.1-8.54-.17a16.46,16.46,0,0,1-3.14-.21,18.88,18.88,0,0,1,3.14-.21c2-.06,4.93-.12,8.54-.17s7.88-.13,12.68-.07a27.09,27.09,0,0,1,7.5,1.23,26.58,26.58,0,0,1,7.36,3.52,28.32,28.32,0,0,1,6,5.47,30.18,30.18,0,0,1,4,6.48c.24.55.43,1.12.65,1.67.1.28.21.55.31.83s.16.55.23.83c.16.55.31,1.1.46,1.64s.19,1.08.29,1.61c.37,2.12.56,4.07.81,5.86.46,3.58.81,6.48,1,8.48A18.56,18.56,0,0,1,326.58,290.77Z"/><path class="cls-6" d="M320.33,391h-1a31.12,31.12,0,0,0-62.24,0h-1a32.16,32.16,0,1,1,64.32,0Z"/><path class="cls-5" d="M261.35,392.62a4.82,4.82,0,1,1-4.82-4.83A4.82,4.82,0,0,1,261.35,392.62Z"/><path class="cls-5" d="M324.87,392a4.82,4.82,0,1,1-4.82-4.82A4.82,4.82,0,0,1,324.87,392Z"/><path class="cls-6" d="M320,383.08c0,.15-14,.27-31.26.27s-31.25-.12-31.25-.27,14-.27,31.25-.27S320,382.93,320,383.08Z"/><path class="cls-5" d="M275.33,156.22a68.22,68.22,0,0,0,11.92-.38,25.92,25.92,0,0,0,12.21-5.58c2-1.85,2.53-2.82,2.65-6.7l.32-5.65-5.68-15.52-14.53-1.2-13.44,6.15-1.23,20.35A8.06,8.06,0,0,0,275.33,156.22Z"/><path class="cls-5" d="M301,145.9c0,2.31-2.1,4-4,5.29s-4.13,2.62-4.71,4.87c-1.11,4.36,4.55,7.66,5.09,12.13.39,3.26-2,6.09-3.51,9a18.45,18.45,0,0,0-.46,15.8c-6.11.53-12.26,1.06-18.4,1.29L270.7,186l-3.16,8.44a102.25,102.25,0,0,1-16.1-1.32c3.17-2.5,3.41-7.15,3.21-11.17s-1-11.16,1.7-14.18c1.85-2.08,4.74-3,6.64-5,2.75-2.94,1.44-4.11.08-7.3a22,22,0,0,1-1.37-11.94c.63-4,3.12-7.39,5.13-10.9s2.12-6,3.23-10.86"/><path class="cls-5" d="M268.94,121.19a14,14,0,0,1-10.75,7.22,8.56,8.56,0,0,0,7.12,1,17,17,0,0,1-6.91,4c.87,2.24,3.53,3.2,5.92,3.37a16.66,16.66,0,0,0,11.81-3.91,15.15,15.15,0,0,0,3.6-16.41"/><path class="cls-5" d="M273.27,120.21a5.48,5.48,0,0,0,5-3.41,9.24,9.24,0,0,0,.12-6.33,7,7,0,0,0-3.35-4.54c-2.11-1-4.69-.21-6.56,1.19a9.89,9.89,0,0,0-4,6.88,7.89,7.89,0,0,0,3.18,7.15,6.59,6.59,0,0,0,7.66-.13"/><path class="cls-6" d="M260.91,135.76a20.59,20.59,0,0,0,4.91.69,15.52,15.52,0,0,0,5.24-1,13.86,13.86,0,0,0,8.64-9.19,15.25,15.25,0,0,0,.66-5.3,20,20,0,0,0-1-4.86s.08.1.18.31a8.64,8.64,0,0,1,.4.92,12.93,12.93,0,0,1,.78,3.61,15,15,0,0,1-.56,5.46,14,14,0,0,1-8.93,9.5,15.14,15.14,0,0,1-5.41.9,13.57,13.57,0,0,1-3.65-.56,10,10,0,0,1-.95-.34A1,1,0,0,1,260.91,135.76Z"/><path class="cls-6" d="M268.92,131.36a18,18,0,0,0,4.34-3.76,17.62,17.62,0,0,0,2.49-5.17,4,4,0,0,1-.21,1.73,10.88,10.88,0,0,1-5,6.54A4.08,4.08,0,0,1,268.92,131.36Z"/><path class="cls-6" d="M265.52,111.85a2.07,2.07,0,0,1,.39-.79,5.76,5.76,0,0,1,1.76-1.62,6.61,6.61,0,0,1,3.44-.94,7.12,7.12,0,0,1,4.12,1.45,8,8,0,0,1,2.67,3.44,9.12,9.12,0,0,1,.68,3.49,9.45,9.45,0,0,1-.29,2.36,2.31,2.31,0,0,1-.31.82,20.47,20.47,0,0,0,.23-3.17,9.48,9.48,0,0,0-.75-3.31,7.92,7.92,0,0,0-2.54-3.22A6.85,6.85,0,0,0,271.1,109a6.49,6.49,0,0,0-3.24.78A7.78,7.78,0,0,0,265.52,111.85Z"/><path class="cls-6" d="M280.49,119.2c.08,0,.77,1.37,2.1,3.5a16.79,16.79,0,0,0,2.76,3.39,9.77,9.77,0,0,0,4.66,2.38,29.42,29.42,0,0,0,5.36.54,23.67,23.67,0,0,0,4.39-.11,9.91,9.91,0,0,0,3.76-1.38,3,3,0,0,1-.86.7,8.12,8.12,0,0,1-2.84,1,21.42,21.42,0,0,1-4.47.23,28.22,28.22,0,0,1-5.45-.51,10,10,0,0,1-4.88-2.54,16,16,0,0,1-2.74-3.54c-.65-1.1-1.09-2-1.39-2.67A3.82,3.82,0,0,1,280.49,119.2Z"/><path class="cls-6" d="M280.49,119.2a8.82,8.82,0,0,1,.55,1.14c.33.73.83,1.79,1.49,3.07s1.47,2.81,2.4,4.47A31.13,31.13,0,0,0,288.3,133a17,17,0,0,0,4.64,4,12.42,12.42,0,0,0,9.32,1.26s-.1.07-.3.15a7.17,7.17,0,0,1-.89.29,10.25,10.25,0,0,1-3.45.23,12.8,12.8,0,0,1-4.91-1.51,16.88,16.88,0,0,1-4.81-4,29.93,29.93,0,0,1-3.39-5.27c-.92-1.68-1.7-3.22-2.31-4.54s-1.07-2.39-1.35-3.16A4.94,4.94,0,0,1,280.49,119.2Z"/><path class="cls-6" d="M278.46,117.75a6.28,6.28,0,0,1,1.07-1,25.32,25.32,0,0,1,3.23-2.16,22.07,22.07,0,0,1,5.38-2.15,17.34,17.34,0,0,1,7.08-.28,14.1,14.1,0,0,1,6.49,2.85,12.42,12.42,0,0,1,3.52,4.6,10.69,10.69,0,0,1,.91,3.8,8.09,8.09,0,0,1,0,1.07c0,.24-.05.36-.07.36a12.74,12.74,0,0,0-1.14-5.07,12.44,12.44,0,0,0-3.49-4.38,13.88,13.88,0,0,0-6.28-2.72,17.29,17.29,0,0,0-6.88.24,22.87,22.87,0,0,0-5.31,2,31.39,31.39,0,0,0-3.29,2A8.8,8.8,0,0,1,278.46,117.75Z"/><path class="cls-6" d="M291.17,109a18,18,0,0,0-11.2,6.25,5,5,0,0,1,1.09-1.62,13.88,13.88,0,0,1,8.15-4.55A5.08,5.08,0,0,1,291.17,109Z"/><path class="cls-9" d="M270,122.35a14.36,14.36,0,0,0,2.61.24,7.09,7.09,0,0,0,6.76-8.62,14.39,14.39,0,0,0-.86-2.49,1.86,1.86,0,0,1,.45.57,6.17,6.17,0,0,1,.77,1.84,7.2,7.2,0,0,1-7.11,9.06,5.92,5.92,0,0,1-2-.3A1.87,1.87,0,0,1,270,122.35Z"/><path class="cls-6" d="M279.37,193.42a3.26,3.26,0,0,1-.34-.69c-.2-.46-.49-1.14-.85-2a39.71,39.71,0,0,1-2.36-7.72,20.72,20.72,0,0,1-.26-5.59,14.48,14.48,0,0,1,2-6.13c1.15-1.94,2.91-3.68,3.38-6s-.5-4.8-1.75-7c-.62-1.13-1.32-2.21-1.95-3.31a29.34,29.34,0,0,1-1.66-3.38,13.83,13.83,0,0,1-1.11-7,12.9,12.9,0,0,1,2.73-5.81A20.85,20.85,0,0,0,280,134a17.79,17.79,0,0,0,1-4.41c.15-1.33.18-2.49.21-3.44s0-1.64,0-2.19a3.69,3.69,0,0,1,0-.76,4,4,0,0,1,.07.76c0,.5.07,1.24.08,2.19a31.65,31.65,0,0,1-.12,3.47,17.64,17.64,0,0,1-1,4.51,20.53,20.53,0,0,1-2.83,4.83,12.61,12.61,0,0,0-2.61,5.63,13.31,13.31,0,0,0,1.12,6.76,27.4,27.4,0,0,0,1.63,3.31c.62,1.09,1.32,2.17,2,3.31a17.07,17.07,0,0,1,1.57,3.56,7.83,7.83,0,0,1,.23,3.81,9.39,9.39,0,0,1-1.52,3.35c-.67,1-1.38,1.89-1.95,2.83a14.16,14.16,0,0,0-1.94,5.92,20.57,20.57,0,0,0,.19,5.49,42.89,42.89,0,0,0,2.19,7.71c.32.85.57,1.53.76,2.05A5.54,5.54,0,0,1,279.37,193.42Z"/><path class="cls-5" d="M271.59,135.88a2.59,2.59,0,0,1-.35.55L270.17,138a24.27,24.27,0,0,0-3.18,6,12.91,12.91,0,0,0-.68,4.59,9.86,9.86,0,0,0,.46,2.53,15.39,15.39,0,0,0,1.14,2.5c.88,1.66,2.09,3.44,2.18,5.66a6.11,6.11,0,0,1-.78,3.17,12.13,12.13,0,0,1-2,2.66,52.84,52.84,0,0,0-4.58,4.49,9.42,9.42,0,0,0-1.9,5.44,25.91,25.91,0,0,0,.37,5.37,43.13,43.13,0,0,1,.5,4.73,10.88,10.88,0,0,1-1.66,6.63,6.32,6.32,0,0,1-1.28,1.38,3.06,3.06,0,0,1-.4.28c-.09.06-.14.09-.15.08a9.06,9.06,0,0,0,1.66-1.85,11,11,0,0,0,1.46-6.51,44.1,44.1,0,0,0-.56-4.68,26.33,26.33,0,0,1-.42-5.45,9.89,9.89,0,0,1,2-5.73,50.72,50.72,0,0,1,4.61-4.54c1.51-1.53,2.75-3.43,2.66-5.46s-1.2-3.76-2.09-5.44a15.68,15.68,0,0,1-1.16-2.59,10,10,0,0,1-.45-2.65,13,13,0,0,1,.76-4.73,23.2,23.2,0,0,1,3.36-6c.49-.65.88-1.14,1.15-1.47A4.17,4.17,0,0,1,271.59,135.88Z"/><path class="cls-6" d="M290.38,192.81s-.07,0-.18-.08-.28-.15-.48-.3a6.2,6.2,0,0,1-1.48-1.6,10.52,10.52,0,0,1-1.13-7.79,37.53,37.53,0,0,1,1.6-5.28,27.76,27.76,0,0,0,1.61-6,19.38,19.38,0,0,0-.38-6.83,21.32,21.32,0,0,0-3-6.73,23.33,23.33,0,0,1-3.31-6.76,21.54,21.54,0,0,1-.48-7c.34-4.46,1.19-8.38,1.09-11.73a17,17,0,0,0-1.62-7.65,18.39,18.39,0,0,0-1.61-2.4,8.47,8.47,0,0,1,1.79,2.31,16.64,16.64,0,0,1,1.81,7.73c.15,3.4-.67,7.37-1,11.77a21.29,21.29,0,0,0,.49,6.84,23.37,23.37,0,0,0,3.26,6.61,21.34,21.34,0,0,1,3,6.89,19.68,19.68,0,0,1,.37,7,28.23,28.23,0,0,1-1.68,6.12,37.13,37.13,0,0,0-1.65,5.2,10.48,10.48,0,0,0,.94,7.61A7.51,7.51,0,0,0,290.38,192.81Z"/><path class="cls-9" d="M348.73,392.68l-.05-1.78-16.77.41.11,5.87,1,.05c4.61.15,23.45.44,26.51-.56C363,395.55,348.73,392.68,348.73,392.68Z"/><g class="cls-18"><path class="cls-12" d="M338.07,396.92a5.81,5.81,0,0,0-2.21-3.51,5.62,5.62,0,0,0-3.93-1.13l.1,4.66Z"/></g><g class="cls-18"><path class="cls-12" d="M355.7,394.33s5,1.32,4.4,2.15-19.66,1.25-28.08.7l0-.37,22.23-.3S354.73,394.39,355.7,394.33Z"/></g><path class="cls-5" d="M331.78,396.81l.28,0,.83,0,3,.07c2.56,0,6.1,0,10-.05s7.45-.23,10-.38l3-.19.82-.07.29,0h-.29l-.82,0-3,.13c-2.56.11-6.1.24-10,.32s-7.45.1-10,.1h-3.87A.9.9,0,0,0,331.78,396.81Z"/><path class="cls-5" d="M354.27,396.77a7.06,7.06,0,0,1,.54-1.46,6.41,6.41,0,0,1,1-1.18,2.22,2.22,0,0,0-1.19,1.08A2.24,2.24,0,0,0,354.27,396.77Z"/><path class="cls-5" d="M349.29,394.38s.28-.26.51-.65.39-.73.34-.76-.27.26-.51.65S349.24,394.35,349.29,394.38Z"/><path class="cls-5" d="M347.93,393.7s.29-.15.58-.41.47-.51.44-.55-.3.14-.58.4S347.89,393.65,347.93,393.7Z"/><path class="cls-5" d="M347,392.14a2,2,0,0,0,.87.09.44.44,0,1,0-.87-.09Z"/><path class="cls-5" d="M346.72,391a1.67,1.67,0,0,0,1,.27,1.73,1.73,0,0,0,1-.16,4.87,4.87,0,0,0-1-.05A7.21,7.21,0,0,0,346.72,391Z"/><path class="cls-5" d="M349.83,392.91a3,3,0,0,0,1.07,0,6.06,6.06,0,0,0,1.14-.28,2.5,2.5,0,0,0,.64-.28.54.54,0,0,0,.26-.34.42.42,0,0,0-.17-.42,2,2,0,0,0-2.42.63,1.92,1.92,0,0,0-.33.72.71.71,0,0,0,0,.29,3.35,3.35,0,0,1,.47-.93,2,2,0,0,1,.91-.61,1.68,1.68,0,0,1,1.28.06c.17.12.11.32-.08.44a3,3,0,0,1-.6.27,6.69,6.69,0,0,1-1.1.31C350.24,392.87,349.83,392.88,349.83,392.91Z"/><path class="cls-5" d="M350.11,393a1.14,1.14,0,0,0,.1-.75,1.77,1.77,0,0,0-.31-.78,1.06,1.06,0,0,0-.9-.52.42.42,0,0,0-.32.5,1.15,1.15,0,0,0,.19.48,3.49,3.49,0,0,0,.52.63,1.54,1.54,0,0,0,.63.42s-.22-.18-.53-.52a3.81,3.81,0,0,1-.46-.63c-.15-.22-.26-.63,0-.68s.55.23.71.44a1.54,1.54,0,0,1,.32.69A5.26,5.26,0,0,1,350.11,393Z"/><path class="cls-5" d="M332,392.23s.47-.06,1.23,0A5.31,5.31,0,0,1,336,393.3a5.42,5.42,0,0,1,1.74,2.34c.27.71.3,1.19.34,1.18a.89.89,0,0,0,0-.34,4.36,4.36,0,0,0-.2-.89,5.07,5.07,0,0,0-1.74-2.45,5.26,5.26,0,0,0-2.83-1,4.71,4.71,0,0,0-.92,0A.82.82,0,0,0,332,392.23Z"/><path class="cls-5" d="M340.13,395.24a9.6,9.6,0,0,0,2.45.19,9.26,9.26,0,0,0,2.43-.25c0-.06-1.09,0-2.44.05S340.14,395.18,340.13,395.24Z"/><path class="cls-5" d="M336.86,395.31s.1.23.21.48.19.46.24.46.08-.27-.05-.55S336.9,395.27,336.86,395.31Z"/><path class="cls-5" d="M335.6,393.8s.07.21.24.38.36.28.39.24-.07-.21-.24-.38S335.63,393.76,335.6,393.8Z"/><path class="cls-5" d="M333.82,393.14c0,.06.23.05.48.13s.42.21.47.17-.1-.27-.41-.36S333.8,393.09,333.82,393.14Z"/><path class="cls-5" d="M332.55,392.84c0,.05.08.13.22.18s.27.05.29,0-.08-.14-.22-.19S332.57,392.78,332.55,392.84Z"/><path class="cls-5" d="M325.2,335.7c-.15,0,.35-9,1.11-20s1.5-20,1.64-19.94-.36,9-1.12,20S325.34,335.71,325.2,335.7Z"/><path class="cls-5" d="M334.84,338a11.43,11.43,0,0,1-.17-1.64c-.07-1.16-.18-2.67-.3-4.51-.25-3.8-.62-9-1.13-14.83s-1.1-11-1.53-14.8c-.21-1.83-.38-3.34-.51-4.48a9.68,9.68,0,0,1-.12-1.66,11,11,0,0,1,.32,1.63c.18,1.05.41,2.57.68,4.46.52,3.78,1.15,9,1.67,14.8s.84,11.06,1,14.86c.08,1.91.12,3.45.13,4.52A8.83,8.83,0,0,1,334.84,338Z"/><g class="cls-10"><path d="M338.88,294.88A46.08,46.08,0,0,1,307.7,318c-2.72.54-5.71.79-8.1-.6-3.27-1.9-4.28-6.17-4.24-9.95s0-8.94,0-12.55Z"/></g><path class="cls-5" d="M280.75,230.94c0-.14,5-.92,11.18-1.73s11.22-1.35,11.24-1.21-5,.92-11.18,1.73S280.77,231.08,280.75,230.94Z"/><path class="cls-5" d="M296,229.09a8.37,8.37,0,0,1-1.69-1.14l-1.75-1.35a2.22,2.22,0,0,1-.85-1.16,1.56,1.56,0,0,1,.55-1.5,1.84,1.84,0,0,1,1.5-.46,2.29,2.29,0,0,1,1.26.68,3.34,3.34,0,0,1,.89,2.13,4.62,4.62,0,0,1-.23,2.05c-.09,0,0-.8-.14-2a3.07,3.07,0,0,0-.86-1.83,1.48,1.48,0,0,0-2.08-.17,1.09,1.09,0,0,0-.4,1,1.82,1.82,0,0,0,.66.9l1.68,1.43A8.18,8.18,0,0,1,296,229.09Z"/><path class="cls-5" d="M295.35,229.14a3.4,3.4,0,0,1,.47-1.68,8.15,8.15,0,0,1,1-1.59,7.67,7.67,0,0,1,.8-.82,1.82,1.82,0,0,1,1.28-.43.78.78,0,0,1,.66.5,1,1,0,0,1-.06.76,4.2,4.2,0,0,1-.71.93,7.63,7.63,0,0,1-1.44,1.23,3.56,3.56,0,0,1-1.59.72c0-.08.56-.37,1.37-1a9.31,9.31,0,0,0,1.31-1.25,3.77,3.77,0,0,0,.59-.82c.14-.28.05-.51-.2-.54-.63,0-1.2.56-1.64,1.05a8.28,8.28,0,0,0-1.07,1.46C295.63,228.53,295.43,229.16,295.35,229.14Z"/><path class="cls-2" d="M326.89,339.54a54.07,54.07,0,0,1,3.84-9.83,26.54,26.54,0,0,1-1.68,5A26.81,26.81,0,0,1,326.89,339.54Z"/><path class="cls-2" d="M309.24,334.31a21.59,21.59,0,0,1-7.52-6.52c.11-.1,1.65,1.52,3.72,3.31S309.32,334.18,309.24,334.31Z"/><path class="cls-2" d="M314.75,311.33a28.58,28.58,0,0,1-4.47-6.3,28.58,28.58,0,0,1,4.47,6.3Z"/><path class="cls-2" d="M305.88,279.48a41.3,41.3,0,0,1-5.8-7.3,21.06,21.06,0,0,1,3.1,3.49A21.28,21.28,0,0,1,305.88,279.48Z"/><path class="cls-2" d="M327.47,275.43a20.16,20.16,0,0,1-4.63.45,21.56,21.56,0,0,1-4.65-.07,20.06,20.06,0,0,1,4.63-.45A21.56,21.56,0,0,1,327.47,275.43Z"/><path class="cls-2" d="M332.46,262.5a25.61,25.61,0,0,1-3.52-6.3,12.4,12.4,0,0,1,2,3A12.56,12.56,0,0,1,332.46,262.5Z"/><path class="cls-2" d="M310,259.71a14.17,14.17,0,0,1-3.3,1.84,13.56,13.56,0,0,1-3.53,1.36,13.89,13.89,0,0,1,3.31-1.83A13.7,13.7,0,0,1,310,259.71Z"/><path class="cls-2" d="M297.35,260.71a41.49,41.49,0,0,1-4.33-3.12,39.62,39.62,0,0,1-4.22-3.29,21.55,21.55,0,0,1,4.53,2.87A20.63,20.63,0,0,1,297.35,260.71Z"/><path class="cls-2" d="M296.21,236.47c.05.15-2.25,1-4.9,2.32s-4.68,2.73-4.77,2.6a22.2,22.2,0,0,1,9.67-4.92Z"/><path class="cls-2" d="M291.9,218.62a18.79,18.79,0,0,1-3.32-2.94,18.39,18.39,0,0,1-2.95-3.31,19,19,0,0,1,3.32,2.94A19.6,19.6,0,0,1,291.9,218.62Z"/><path class="cls-2" d="M304.57,205.42a22.52,22.52,0,0,1-5.68,3.8,11.26,11.26,0,0,1,2.69-2.12A11.68,11.68,0,0,1,304.57,205.42Z"/><path class="cls-2" d="M294.34,203.09a16,16,0,0,1-2.79-2.93,15.6,15.6,0,0,1-2.39-3.27,32,32,0,0,1,5.18,6.2Z"/><path class="cls-2" d="M310.23,184a33.22,33.22,0,0,1-3.94,2.24,33.3,33.3,0,0,1-4,2.16,22.15,22.15,0,0,1,7.94-4.4Z"/><path class="cls-2" d="M318.6,195.92a14.41,14.41,0,0,1,.89-3.77,14.61,14.61,0,0,1,1.4-3.61,15.22,15.22,0,0,1-.9,3.77A14.17,14.17,0,0,1,318.6,195.92Z"/><path class="cls-2" d="M322.37,209.53a10.76,10.76,0,0,1-3.83-1.77,10.33,10.33,0,0,1-3.19-2.75c.1-.11,1.54,1.08,3.47,2.32S322.43,209.39,322.37,209.53Z"/><path class="cls-2" d="M299.52,177a20,20,0,0,1,2.21-4.13,21.72,21.72,0,0,1,2.65-3.87,20.23,20.23,0,0,1-2.21,4.14A21.85,21.85,0,0,1,299.52,177Z"/><path class="cls-2" d="M276.68,199a28.74,28.74,0,0,1-5.45-.78,27.8,27.8,0,0,1-5.35-1.3,29.09,29.09,0,0,1,5.45.79A29.21,29.21,0,0,1,276.68,199Z"/><rect class="cls-3" x="348.45" y="110.34" width="74.16" height="56.16"/><rect class="cls-9" x="402.93" y="123.55" width="8.66" height="34.5"/><rect class="cls-9" x="388.68" y="120.94" width="8.66" height="37.11"/><rect class="cls-9" x="374.87" y="125.54" width="8.66" height="32.51"/><rect class="cls-21" x="374.87" y="125.54" width="8.66" height="32.51"/><rect class="cls-9" x="360.84" y="130.61" width="8.66" height="27.44"/><rect class="cls-9" x="402.93" y="123.55" width="8.66" height="34.5"/><path class="cls-5" d="M418.16,158.18c0,.14-14.24.26-31.8.26s-31.8-.12-31.8-.26,14.24-.26,31.8-.26S418.16,158,418.16,158.18Z"/><path class="cls-5" d="M414.55,125.69c0,.06-1-.12-2.78,0a16.38,16.38,0,0,0-7.14,2.13,15.32,15.32,0,0,0-4,3.27c-1.24,1.39-2.34,3.07-3.66,4.75a13.68,13.68,0,0,1-5.12,4.32,18.51,18.51,0,0,1-7.06,1.39c-2.46.09-4.84,0-7.13.07a33,33,0,0,0-6.53.89,19.54,19.54,0,0,0-5.47,2.27,13.92,13.92,0,0,0-3.81,3.45,12.16,12.16,0,0,0-2.57,6.92,14.66,14.66,0,0,0,.29,2.75,7.57,7.57,0,0,1-.5-2.75,12.15,12.15,0,0,1,2.48-7.14,14.19,14.19,0,0,1,3.88-3.59A19.4,19.4,0,0,1,371,142a32.51,32.51,0,0,1,6.62-.94c2.32-.11,4.72,0,7.15-.08a18.19,18.19,0,0,0,6.86-1.33,13.26,13.26,0,0,0,5-4.16c1.31-1.64,2.44-3.33,3.72-4.74a15.58,15.58,0,0,1,4.13-3.3,16.12,16.12,0,0,1,7.32-2,13.64,13.64,0,0,1,2.07.11A2.93,2.93,0,0,1,414.55,125.69Z"/><path class="cls-5" d="M349.19,134a2.77,2.77,0,0,1-.46,0h-1.35l-5.11,0-18.28-.3h-.22v-.22c0-7.77,0-17,0-26.85,0-14.36.06-27.36.08-36.82,0-4.68.06-8.48.08-11.16,0-1.28,0-2.3.05-3l0-.79a.14.14,0,1,1,.06,0l0,.79c0,.73,0,1.75,0,3,0,2.68.05,6.48.08,11.16,0,9.46.05,22.46.08,36.82,0,9.86,0,19.08,0,26.85l-.21-.22,18.27.48,5.12.17,1.34.06Z"/><path class="cls-5" d="M457.72,91.36a4.66,4.66,0,0,1-.65,0l-1.88,0-6.88.08-22.73.08-13.16,0,.23-.23c0,5.56-.07,10.28-.09,13.69,0,1.62-.05,2.93-.07,3.9,0,.41,0,.75,0,1a2,2,0,0,1,0,.36s0-.12,0-.36,0-.62,0-1c0-1,0-2.28-.07-3.9,0-3.41,0-8.13-.09-13.69v-.24h.24l13.16,0,22.73.07,6.88.09,1.88,0A2.74,2.74,0,0,1,457.72,91.36Z"/><path class="cls-5" d="M348.45,153a1.35,1.35,0,0,1-.35,0l-1.06,0H343l-14.88,0L279,152.65l-39.07-.39h-.15l-.05-.12L231,131.82c-1-2.42-1.82-4.33-2.39-5.66-.25-.63-.46-1.13-.61-1.49a5.19,5.19,0,0,1-.19-.52,2.55,2.55,0,0,1,.25.49c.17.36.39.85.67,1.47l2.5,5.62c2.13,4.88,5.18,11.84,8.85,20.23l-.2-.13,39.08.3,49.11.52,14.89.22,4,.08,1.06,0A1.6,1.6,0,0,1,348.45,153Z"/><path class="cls-4" d="M247.12,152.25a4.55,4.55,0,1,1-4.55-4.55A4.55,4.55,0,0,1,247.12,152.25Z"/><path class="cls-6" d="M231.09,126.08H203.72a6.94,6.94,0,0,1-6.94-6.94h0a6.94,6.94,0,0,1,6.94-6.94h27.37a6.94,6.94,0,0,1,6.94,6.94h0A6.94,6.94,0,0,1,231.09,126.08Z"/><rect class="cls-3" x="214.47" y="49.46" width="63.75" height="42.33"/><rect class="cls-9" x="249.34" y="62.22" width="42.33" height="16.81"/><path class="cls-4" d="M241.52,62.94a92.37,92.37,0,0,1-9.9.26,92.65,92.65,0,0,1-9.91-.26,95.91,95.91,0,0,1,9.91-.26A95.62,95.62,0,0,1,241.52,62.94Z"/><path class="cls-4" d="M241.52,66a92.37,92.37,0,0,1-9.9.26,92.65,92.65,0,0,1-9.91-.26,95.91,95.91,0,0,1,9.91-.26A95.62,95.62,0,0,1,241.52,66Z"/><path class="cls-4" d="M241.52,69.08a90.68,90.68,0,0,1-9.9.27,91,91,0,0,1-9.91-.27,95.91,95.91,0,0,1,9.91-.26A95.62,95.62,0,0,1,241.52,69.08Z"/><path class="cls-4" d="M241.52,72.16a95.62,95.62,0,0,1-9.9.26,95.91,95.91,0,0,1-9.91-.26,92.65,92.65,0,0,1,9.91-.26A92.37,92.37,0,0,1,241.52,72.16Z"/><path class="cls-4" d="M241.52,75.23a95.62,95.62,0,0,1-9.9.26,95.91,95.91,0,0,1-9.91-.26,92.65,92.65,0,0,1,9.91-.26A92.37,92.37,0,0,1,241.52,75.23Z"/><path class="cls-4" d="M233.35,78.3a33.25,33.25,0,0,1-5.82.26,33.25,33.25,0,0,1-5.82-.26,32.12,32.12,0,0,1,5.82-.26A32.12,32.12,0,0,1,233.35,78.3Z"/><path class="cls-4" d="M277.71,55.67c0,.14-14.15.26-31.61.26s-31.63-.12-31.63-.26,14.16-.26,31.63-.26S277.71,55.53,277.71,55.67Z"/><path class="cls-5" d="M392.33,94.33a2.44,2.44,0,0,1,0-.46c0-.33,0-.75,0-1.29,0-1.16,0-2.79-.06-4.84,0-4.18-.07-10.07-.11-17.12l.22.23-23.71,0,.26-.26h0V77c0,2.09,0,4.14,0,6.13,0,4,0,7.73,0,11.18l-.22-.22,17.12.11,4.84.06,1.29,0,.46,0a1.93,1.93,0,0,1-.41,0l-1.25,0-4.79.06-17.26.12h-.23v-.23c0-3.45,0-7.2,0-11.18,0-2,0-4,0-6.13V70.64h0l.26-.26,23.71,0h.23v.22c-.05,7.11-.09,13-.12,17.26,0,2,0,3.64-.06,4.79,0,.52,0,.93,0,1.25A1.93,1.93,0,0,1,392.33,94.33Z"/><rect class="cls-4" x="397.18" y="60.47" width="11.86" height="11.86"/><path class="cls-6" d="M488.93,98.3H461.55a6.94,6.94,0,0,1-6.94-6.94h0a6.94,6.94,0,0,1,6.94-6.94h27.38a6.94,6.94,0,0,1,6.94,6.94h0A6.94,6.94,0,0,1,488.93,98.3Z"/><circle class="cls-4" cx="412.29" cy="91.45" r="4.55"/><circle class="cls-4" cx="324.49" cy="132.89" r="4.55"/><rect class="cls-6" x="303.37" y="48.73" width="41.25" height="13.88" rx="6.94"/></g></g></svg>